<svg width="40" height="40" viewBox="0 0 40 40" fill="none" xmlns="http://www.w3.org/2000/svg">
<rect width="40" height="40" rx="4" fill="#FFB800"/>
<path d="M30.3918 33.7248H9.6085C9.6085 31.6415 7.91683 29.9498 5.8335 29.9498V18.6165C7.91683 18.6165 9.6085 16.9248 9.6085 14.8415H30.3835C30.3835 16.9248 32.0752 18.6165 34.1585 18.6165V29.9498C32.0752 29.9498 30.3835 31.6415 30.3835 33.7248H30.3918Z" fill="#071824"/>
<path d="M30.3918 29.9415H9.6085C9.6085 27.8582 7.91683 26.1665 5.8335 26.1665V12.9415C7.91683 12.9415 9.6085 11.2498 9.6085 9.1665H30.3835C30.3835 11.2498 32.0752 12.9415 34.1585 12.9415V26.1665C32.0752 26.1665 30.3835 27.8582 30.3835 29.9415H30.3918Z" fill="white"/>
<path d="M11.8085 27.1082C11.1585 25.7332 10.0418 24.6248 8.66683 23.9665V15.1415C10.0418 14.4915 11.1502 13.3748 11.8085 11.9998H28.2002C28.8502 13.3748 29.9668 14.4832 31.3418 15.1415V23.9748C29.9668 24.6248 28.8585 25.7415 28.2002 27.1165H11.8085V27.1082Z" fill="white"/>
<path d="M13.3835 24.2748C12.8502 23.5582 12.2085 22.9248 11.5002 22.3915V16.7165C12.2168 16.1832 12.8502 15.5415 13.3835 14.8332H26.6168C27.1502 15.5498 27.7918 16.1832 28.5002 16.7165V22.3915C27.7835 22.9248 27.1502 23.5665 26.6168 24.2748H13.3835Z" fill="white"/>
<path d="M20.7585 12.1582L22.5418 15.2915C22.6585 15.4998 22.8668 15.6498 23.1002 15.6915L26.6335 16.4165C27.2668 16.5498 27.5168 17.3165 27.0835 17.7915L24.6502 20.4582C24.4918 20.6332 24.4085 20.8748 24.4418 21.1082L24.8418 24.6915C24.9168 25.3332 24.2585 25.8082 23.6668 25.5415L20.3835 24.0498C20.1668 23.9498 19.9168 23.9498 19.7002 24.0498L16.4168 25.5415C15.8252 25.8082 15.1752 25.3332 15.2418 24.6915L15.6418 21.1082C15.6668 20.8665 15.5918 20.6332 15.4335 20.4582L13.0002 17.7915C12.5668 17.3165 12.8168 16.5415 13.4502 16.4165L16.9835 15.6915C17.2168 15.6415 17.4252 15.4998 17.5418 15.2915L19.3252 12.1582C19.6418 11.5998 20.4502 11.5998 20.7752 12.1582H20.7585Z" fill="#071824"/>
</svg>
