<svg width="40" height="40" viewBox="0 0 40 40" fill="none" xmlns="http://www.w3.org/2000/svg">
<rect width="40" height="40" rx="4" fill="#FFB800"/>
<path d="M19.0194 35C25.8418 35 31.3724 29.6669 31.3724 23.0882C31.3724 16.5096 25.8418 11.1765 19.0194 11.1765C12.1971 11.1765 6.6665 16.5096 6.6665 23.0882C6.6665 29.6669 12.1971 35 19.0194 35Z" fill="#071824"/>
<path d="M24.3136 17.3529L27.9647 9.41176C29.1274 9.84155 30.1814 10.4764 31.0616 11.2774C31.9418 12.0784 32.6481 13.0258 33.1371 14.0612L24.3136 17.3529Z" fill="#071824"/>
<path d="M19.0036 19.5652L30.4361 15.0029C32.3433 19.4559 31.2814 24.5948 27.7558 28.0041C22.9622 32.6261 15.0553 32.6261 10.2617 28.0041C5.4681 23.3821 5.4681 15.7583 10.2617 11.1363C13.7976 7.72699 19.1273 6.71313 23.7457 8.55199L19.0139 19.5752L19.0036 19.5652Z" fill="white"/>
<path d="M24.3136 14.6958L28.335 5C29.6049 5.52464 30.764 6.30152 31.7416 7.28018C32.7193 8.25884 33.4853 9.40901 34.0194 10.6904L24.3337 14.7059L24.3136 14.6958Z" fill="white"/>
<path d="M19.0194 22.6471C20.9687 22.6471 22.5489 21.0669 22.5489 19.1176C22.5489 17.1684 20.9687 15.5882 19.0194 15.5882C17.0702 15.5882 15.49 17.1684 15.49 19.1176C15.49 21.0669 17.0702 22.6471 19.0194 22.6471Z" fill="#071824"/>
</svg>
