<svg xmlns="http://www.w3.org/2000/svg" width="343" height="534" viewBox="0 0 343 534" fill="none">
<g clip-path="url(#clip0_12412_52942)">
<g clip-path="url(#clip1_12412_52942)">
<rect width="343" height="535" rx="16" fill="#1A2C38"/>
<g clip-path="url(#clip2_12412_52942)">
<rect x="18" y="142" width="267" height="63" rx="8" fill="#2F4553"/>
<path d="M36.456 165H30.792V156.996H36.456V158.496H32.496V160.188H36.372V161.688H32.496V163.5H36.456V165ZM43.1881 165H41.6641V161.496C41.6641 160.692 41.2441 160.416 40.5961 160.416C39.9961 160.416 39.5281 160.752 39.2761 161.1V165H37.7521V159.204H39.2761V159.96C39.6481 159.516 40.3561 159.06 41.3041 159.06C42.5761 159.06 43.1881 159.78 43.1881 160.908V165ZM47.0773 167.352C46.0813 167.352 45.3133 167.124 44.5813 166.488L45.2653 165.384C45.7333 165.9 46.3453 166.104 47.0773 166.104C47.8093 166.104 48.6733 165.78 48.6733 164.64V164.052C48.2173 164.628 47.5933 164.964 46.8853 164.964C45.4333 164.964 44.3293 163.944 44.3293 162.012C44.3293 160.116 45.4213 159.06 46.8853 159.06C47.5813 159.06 48.2053 159.36 48.6733 159.948V159.204H50.2093V164.604C50.2093 166.812 48.5053 167.352 47.0773 167.352ZM47.3653 163.608C47.8693 163.608 48.4213 163.32 48.6733 162.948V161.076C48.4213 160.692 47.8693 160.416 47.3653 160.416C46.5013 160.416 45.9013 161.016 45.9013 162.012C45.9013 163.008 46.5013 163.608 47.3653 163.608ZM53.2448 165H51.7208V156.996H53.2448V165ZM55.512 158.58C55.02 158.58 54.6 158.172 54.6 157.668C54.6 157.164 55.02 156.768 55.512 156.768C56.016 156.768 56.424 157.164 56.424 157.668C56.424 158.172 56.016 158.58 55.512 158.58ZM56.28 165H54.756V159.204H56.28V165ZM59.8792 165.144C58.8712 165.144 57.8992 164.808 57.2872 164.244L57.9472 163.176C58.3672 163.572 59.2312 163.968 59.9512 163.968C60.6112 163.968 60.9232 163.704 60.9232 163.344C60.9232 162.384 57.4792 163.164 57.4792 160.884C57.4792 159.912 58.3312 159.06 59.8552 159.06C60.8392 159.06 61.6192 159.396 62.1952 159.852L61.5832 160.896C61.2352 160.524 60.5752 160.224 59.8672 160.224C59.3152 160.224 58.9552 160.476 58.9552 160.8C58.9552 161.664 62.3872 160.944 62.3872 163.284C62.3872 164.34 61.4872 165.144 59.8792 165.144ZM68.9579 165H67.4339V161.472C67.4339 160.668 67.0139 160.416 66.3539 160.416C65.7659 160.416 65.2979 160.752 65.0339 161.1V165H63.5099V156.996H65.0339V159.96C65.4059 159.516 66.1259 159.06 67.0739 159.06C68.3459 159.06 68.9579 159.756 68.9579 160.884V165ZM76.4212 165.144C74.8852 165.144 73.7812 164.628 73.0372 163.872L73.9612 162.576C74.5252 163.164 75.4012 163.656 76.5052 163.656C77.4412 163.656 77.8972 163.224 77.8972 162.768C77.8972 161.352 73.2892 162.324 73.2892 159.312C73.2892 157.98 74.4412 156.876 76.3252 156.876C77.5972 156.876 78.6532 157.26 79.4452 157.992L78.4972 159.24C77.8492 158.64 76.9852 158.364 76.1692 158.364C75.4372 158.364 75.0292 158.688 75.0292 159.168C75.0292 160.44 79.6252 159.588 79.6252 162.576C79.6252 164.04 78.5812 165.144 76.4212 165.144ZM86.1725 165H84.6485V164.268C84.2525 164.712 83.5565 165.144 82.6085 165.144C81.3365 165.144 80.7365 164.448 80.7365 163.32V159.204H82.2605V162.72C82.2605 163.524 82.6805 163.788 83.3285 163.788C83.9165 163.788 84.3845 163.464 84.6485 163.128V159.204H86.1725V165ZM90.9977 165.144C90.3137 165.144 89.6777 164.856 89.2097 164.256V167.208H87.6857V159.204H89.2097V159.936C89.6537 159.372 90.2897 159.06 90.9977 159.06C92.4857 159.06 93.5657 160.164 93.5657 162.096C93.5657 164.028 92.4857 165.144 90.9977 165.144ZM90.5177 163.788C91.3937 163.788 91.9817 163.104 91.9817 162.096C91.9817 161.1 91.3937 160.416 90.5177 160.416C90.0257 160.416 89.4617 160.704 89.2097 161.076V163.128C89.4617 163.488 90.0257 163.788 90.5177 163.788ZM97.9938 165.144C97.3098 165.144 96.6738 164.856 96.2058 164.256V167.208H94.6818V159.204H96.2058V159.936C96.6498 159.372 97.2858 159.06 97.9938 159.06C99.4818 159.06 100.562 160.164 100.562 162.096C100.562 164.028 99.4818 165.144 97.9938 165.144ZM97.5138 163.788C98.3898 163.788 98.9778 163.104 98.9778 162.096C98.9778 161.1 98.3898 160.416 97.5138 160.416C97.0218 160.416 96.4578 160.704 96.2058 161.076V163.128C96.4578 163.488 97.0218 163.788 97.5138 163.788ZM104.366 165.144C102.458 165.144 101.306 163.752 101.306 162.096C101.306 160.452 102.458 159.06 104.366 159.06C106.286 159.06 107.438 160.452 107.438 162.096C107.438 163.752 106.286 165.144 104.366 165.144ZM104.366 163.788C105.314 163.788 105.854 163.008 105.854 162.096C105.854 161.196 105.314 160.416 104.366 160.416C103.418 160.416 102.89 161.196 102.89 162.096C102.89 163.008 103.418 163.788 104.366 163.788ZM110.093 165H108.569V159.204H110.093V159.996C110.501 159.48 111.221 159.06 111.941 159.06V160.548C111.833 160.524 111.689 160.512 111.521 160.512C111.017 160.512 110.345 160.8 110.093 161.172V165ZM114.837 165.144C113.769 165.144 113.193 164.592 113.193 163.56V160.536H112.233V159.204H113.193V157.62H114.729V159.204H115.905V160.536H114.729V163.152C114.729 163.512 114.921 163.788 115.257 163.788C115.485 163.788 115.701 163.704 115.785 163.62L116.109 164.772C115.881 164.976 115.473 165.144 114.837 165.144Z" fill="white"/>
<path d="M39.128 189H37.49V184.926H32.632V189H30.994V179.662H32.632V183.484H37.49V179.662H39.128V189ZM44.1912 189.168C42.1612 189.168 40.6492 187.754 40.6492 185.612C40.6492 183.652 42.0772 182.07 44.0792 182.07C46.1092 182.07 47.4112 183.624 47.4112 185.752V186.102H42.1892C42.3012 187.124 43.0712 187.964 44.3452 187.964C45.0032 187.964 45.7872 187.698 46.2632 187.222L46.9352 188.188C46.2632 188.832 45.2692 189.168 44.1912 189.168ZM45.9832 185.066C45.9552 184.268 45.4092 183.274 44.0792 183.274C42.8192 183.274 42.2452 184.24 42.1752 185.066H45.9832ZM48.5682 191.646L48.7922 190.33C48.9462 190.4 49.1842 190.442 49.3522 190.442C49.8142 190.442 50.1222 190.302 50.3182 189.854L50.6542 189.084L47.8822 182.238H49.4502L51.4242 187.306L53.3982 182.238H54.9802L51.7182 190.218C51.2562 191.366 50.4442 191.73 49.3942 191.744C49.1842 191.744 48.7782 191.702 48.5682 191.646ZM61.5289 189.168C60.3949 189.168 59.7929 188.552 59.7929 187.432V183.526H58.6729V182.238H59.7929V180.39H61.2629V182.238H62.6349V183.526H61.2629V187.068C61.2629 187.53 61.4869 187.866 61.9069 187.866C62.1869 187.866 62.4529 187.754 62.5649 187.628L62.9149 188.734C62.6489 188.986 62.2149 189.168 61.5289 189.168ZM70.0176 189H68.5476V184.744C68.5476 183.694 68.0016 183.372 67.1756 183.372C66.4336 183.372 65.7896 183.82 65.4396 184.282V189H63.9696V179.662H65.4396V183.162C65.8876 182.63 66.7696 182.07 67.8336 182.07C69.2896 182.07 70.0176 182.826 70.0176 184.212V189ZM75.0486 189.168C73.0186 189.168 71.5066 187.754 71.5066 185.612C71.5066 183.652 72.9346 182.07 74.9366 182.07C76.9666 182.07 78.2686 183.624 78.2686 185.752V186.102H73.0466C73.1586 187.124 73.9286 187.964 75.2026 187.964C75.8606 187.964 76.6446 187.698 77.1206 187.222L77.7926 188.188C77.1206 188.832 76.1266 189.168 75.0486 189.168ZM76.8406 185.066C76.8126 184.268 76.2666 183.274 74.9366 183.274C73.6766 183.274 73.1026 184.24 73.0326 185.066H76.8406ZM81.1896 189H79.7196V182.238H81.1896V183.232C81.6936 182.588 82.5056 182.084 83.3876 182.084V183.54C83.2616 183.512 83.1076 183.498 82.9256 183.498C82.3096 183.498 81.4836 183.918 81.1896 184.394V189ZM87.6951 189.168C85.6651 189.168 84.1531 187.754 84.1531 185.612C84.1531 183.652 85.5811 182.07 87.5831 182.07C89.6131 182.07 90.9151 183.624 90.9151 185.752V186.102H85.6931C85.8051 187.124 86.5751 187.964 87.8491 187.964C88.5071 187.964 89.2911 187.698 89.7671 187.222L90.4391 188.188C89.7671 188.832 88.7731 189.168 87.6951 189.168ZM89.4871 185.066C89.4591 184.268 88.9131 183.274 87.5831 183.274C86.3231 183.274 85.7491 184.24 85.6791 185.066H89.4871ZM93.7661 186.144H92.4921L92.2261 179.662H94.0181L93.7661 186.144ZM93.1221 189.14C92.5901 189.14 92.1561 188.692 92.1561 188.174C92.1561 187.642 92.5901 187.194 93.1221 187.194C93.6541 187.194 94.1021 187.642 94.1021 188.174C94.1021 188.692 93.6541 189.14 93.1221 189.14ZM107.569 189H105.931V184.926H101.073V189H99.4354V179.662H101.073V183.484H105.931V179.662H107.569V189ZM112.563 189.168C110.421 189.168 109.091 187.558 109.091 185.612C109.091 183.68 110.421 182.07 112.563 182.07C114.733 182.07 116.049 183.68 116.049 185.612C116.049 187.558 114.733 189.168 112.563 189.168ZM112.563 187.866C113.823 187.866 114.523 186.816 114.523 185.612C114.523 184.422 113.823 183.372 112.563 183.372C111.317 183.372 110.617 184.422 110.617 185.612C110.617 186.816 111.317 187.866 112.563 187.866ZM124.97 189H123.43L121.862 184.044L120.294 189H118.754L116.654 182.238H118.18L119.608 187.152L121.218 182.238H122.506L124.116 187.152L125.544 182.238H127.07L124.97 189ZM134.766 189.168C132.708 189.168 131.266 187.67 131.266 185.612C131.266 183.568 132.708 182.07 134.766 182.07C136.082 182.07 136.88 182.63 137.356 183.274L136.39 184.17C136.012 183.638 135.494 183.372 134.836 183.372C133.604 183.372 132.792 184.296 132.792 185.612C132.792 186.928 133.604 187.866 134.836 187.866C135.494 187.866 136.012 187.586 136.39 187.068L137.356 187.964C136.88 188.608 136.082 189.168 134.766 189.168ZM144.245 189H142.775V188.272C142.271 188.846 141.487 189.168 140.591 189.168C139.485 189.168 138.239 188.426 138.239 186.928C138.239 185.374 139.485 184.73 140.591 184.73C141.501 184.73 142.285 185.024 142.775 185.598V184.59C142.775 183.806 142.131 183.33 141.193 183.33C140.437 183.33 139.779 183.61 139.191 184.184L138.589 183.162C139.373 182.42 140.353 182.07 141.431 182.07C142.929 182.07 144.245 182.7 144.245 184.52V189ZM141.165 188.16C141.809 188.16 142.439 187.922 142.775 187.46V186.438C142.439 185.976 141.809 185.738 141.165 185.738C140.339 185.738 139.723 186.214 139.723 186.956C139.723 187.684 140.339 188.16 141.165 188.16ZM152.185 189H150.715V184.772C150.715 183.722 150.183 183.372 149.357 183.372C148.601 183.372 147.957 183.82 147.621 184.282V189H146.151V182.238H147.621V183.162C148.069 182.63 148.937 182.07 150.001 182.07C151.457 182.07 152.185 182.854 152.185 184.24V189ZM165.124 189H163.584L162.016 184.044L160.448 189H158.908L156.808 182.238H158.334L159.762 187.152L161.372 182.238H162.66L164.27 187.152L165.698 182.238H167.224L165.124 189ZM171.367 189.168C169.337 189.168 167.825 187.754 167.825 185.612C167.825 183.652 169.253 182.07 171.255 182.07C173.285 182.07 174.587 183.624 174.587 185.752V186.102H169.365C169.477 187.124 170.247 187.964 171.521 187.964C172.179 187.964 172.963 187.698 173.439 187.222L174.111 188.188C173.439 188.832 172.445 189.168 171.367 189.168ZM173.159 185.066C173.131 184.268 172.585 183.274 171.255 183.274C169.995 183.274 169.421 184.24 169.351 185.066H173.159ZM185.682 189H184.212V184.744C184.212 183.694 183.666 183.372 182.84 183.372C182.098 183.372 181.454 183.82 181.104 184.282V189H179.634V179.662H181.104V183.162C181.552 182.63 182.434 182.07 183.498 182.07C184.954 182.07 185.682 182.826 185.682 184.212V189ZM190.713 189.168C188.683 189.168 187.171 187.754 187.171 185.612C187.171 183.652 188.599 182.07 190.601 182.07C192.631 182.07 193.933 183.624 193.933 185.752V186.102H188.711C188.823 187.124 189.593 187.964 190.867 187.964C191.525 187.964 192.309 187.698 192.785 187.222L193.457 188.188C192.785 188.832 191.791 189.168 190.713 189.168ZM192.505 185.066C192.477 184.268 191.931 183.274 190.601 183.274C189.341 183.274 188.767 184.24 188.697 185.066H192.505ZM196.854 189H195.384V179.662H196.854V189ZM202.401 189.168C201.547 189.168 200.777 188.79 200.231 188.062V191.576H198.761V182.238H200.231V183.162C200.735 182.49 201.519 182.07 202.401 182.07C204.151 182.07 205.397 183.386 205.397 185.612C205.397 187.838 204.151 189.168 202.401 189.168ZM201.967 187.866C203.129 187.866 203.871 186.928 203.871 185.612C203.871 184.31 203.129 183.372 201.967 183.372C201.281 183.372 200.553 183.778 200.231 184.282V186.956C200.553 187.446 201.281 187.866 201.967 187.866ZM207.851 186.256C207.515 185.934 207.347 185.528 207.347 185.066C207.347 183.358 209.601 183.176 209.601 181.986C209.601 181.44 209.181 180.978 208.271 180.978C207.417 180.978 206.801 181.37 206.325 181.958L205.387 180.908C206.101 180.04 207.179 179.522 208.439 179.522C210.203 179.522 211.281 180.46 211.281 181.72C211.281 183.792 208.775 183.96 208.775 185.22C208.775 185.444 208.901 185.696 209.083 185.85L207.851 186.256ZM208.355 189.154C207.823 189.154 207.375 188.706 207.375 188.174C207.375 187.642 207.823 187.194 208.355 187.194C208.887 187.194 209.335 187.642 209.335 188.174C209.335 188.706 208.887 189.154 208.355 189.154Z" fill="white"/>
</g>
<rect x="58" y="221" width="267" height="41" rx="8" fill="#00CA51"/>
<path d="M75.348 246.168C72.548 246.168 70.574 244.124 70.574 241.338C70.574 238.552 72.548 236.508 75.348 236.508C78.148 236.508 80.122 238.552 80.122 241.338C80.122 244.124 78.148 246.168 75.348 246.168ZM75.348 244.712C77.224 244.712 78.442 243.256 78.442 241.338C78.442 239.406 77.224 237.964 75.348 237.964C73.458 237.964 72.254 239.406 72.254 241.338C72.254 243.256 73.458 244.712 75.348 244.712ZM82.3851 238.412C81.8951 238.412 81.4751 238.006 81.4751 237.502C81.4751 236.998 81.8951 236.592 82.3851 236.592C82.8891 236.592 83.2951 236.998 83.2951 237.502C83.2951 238.006 82.8891 238.412 82.3851 238.412ZM83.1271 246H81.6571V239.238H83.1271V246ZM86.434 243.144H85.16L84.894 236.662H86.686L86.434 243.144ZM85.79 246.14C85.258 246.14 84.824 245.692 84.824 245.174C84.824 244.642 85.258 244.194 85.79 244.194C86.322 244.194 86.77 244.642 86.77 245.174C86.77 245.692 86.322 246.14 85.79 246.14ZM96.8354 246H94.7914L91.1234 236.662H92.9854L95.8134 244.222L98.6414 236.662H100.503L96.8354 246ZM103.699 246.168C101.557 246.168 100.227 244.558 100.227 242.612C100.227 240.68 101.557 239.07 103.699 239.07C105.869 239.07 107.185 240.68 107.185 242.612C107.185 244.558 105.869 246.168 103.699 246.168ZM103.699 244.866C104.959 244.866 105.659 243.816 105.659 242.612C105.659 241.422 104.959 240.372 103.699 240.372C102.453 240.372 101.753 241.422 101.753 242.612C101.753 243.816 102.453 244.866 103.699 244.866ZM111.753 246.168C109.695 246.168 108.253 244.67 108.253 242.612C108.253 240.568 109.695 239.07 111.753 239.07C113.069 239.07 113.867 239.63 114.343 240.274L113.377 241.17C112.999 240.638 112.481 240.372 111.823 240.372C110.591 240.372 109.779 241.296 109.779 242.612C109.779 243.928 110.591 244.866 111.823 244.866C112.481 244.866 112.999 244.586 113.377 244.068L114.343 244.964C113.867 245.608 113.069 246.168 111.753 246.168ZM120.658 238.216H119.72L118.642 236.872L117.592 238.216H116.668L117.97 236.2H119.314L120.658 238.216ZM118.754 246.168C116.724 246.168 115.212 244.754 115.212 242.612C115.212 240.652 116.64 239.07 118.642 239.07C120.672 239.07 121.974 240.624 121.974 242.752V243.102H116.752C116.864 244.124 117.634 244.964 118.908 244.964C119.566 244.964 120.35 244.698 120.826 244.222L121.498 245.188C120.826 245.832 119.832 246.168 118.754 246.168ZM120.546 242.066C120.518 241.268 119.972 240.274 118.642 240.274C117.382 240.274 116.808 241.24 116.738 242.066H120.546ZM128.84 246H127.37V240.526H126.25V239.238H127.37V238.86C127.37 237.39 128.224 236.522 129.512 236.522C130.114 236.522 130.716 236.676 131.136 237.11L130.562 238.02C130.366 237.838 130.114 237.726 129.778 237.726C129.204 237.726 128.84 238.104 128.84 238.86V239.238H130.212V240.526H128.84V246ZM136.927 246H135.457V245.272C134.953 245.846 134.169 246.168 133.273 246.168C132.167 246.168 130.921 245.426 130.921 243.928C130.921 242.374 132.167 241.73 133.273 241.73C134.183 241.73 134.967 242.024 135.457 242.598V241.59C135.457 240.806 134.813 240.33 133.875 240.33C133.119 240.33 132.461 240.61 131.873 241.184L131.271 240.162C132.055 239.42 133.035 239.07 134.113 239.07C135.611 239.07 136.927 239.7 136.927 241.52V246ZM133.847 245.16C134.491 245.16 135.121 244.922 135.457 244.46V243.438C135.121 242.976 134.491 242.738 133.847 242.738C133.021 242.738 132.405 243.214 132.405 243.956C132.405 244.684 133.021 245.16 133.847 245.16ZM140.303 246H138.833V236.662H140.303V246ZM147.81 246H146.34V245.272C145.836 245.846 145.052 246.168 144.156 246.168C143.05 246.168 141.804 245.426 141.804 243.928C141.804 242.374 143.05 241.73 144.156 241.73C145.066 241.73 145.85 242.024 146.34 242.598V241.59C146.34 240.806 145.696 240.33 144.758 240.33C144.002 240.33 143.344 240.61 142.756 241.184L142.154 240.162C142.938 239.42 143.918 239.07 144.996 239.07C146.494 239.07 147.81 239.7 147.81 241.52V246ZM144.73 245.16C145.374 245.16 146.004 244.922 146.34 244.46V243.438C146.004 242.976 145.374 242.738 144.73 242.738C143.904 242.738 143.288 243.214 143.288 243.956C143.288 244.684 143.904 245.16 144.73 245.16ZM156.951 246.168C156.097 246.168 155.327 245.79 154.781 245.062V248.576H153.311V239.238H154.781V240.162C155.285 239.49 156.069 239.07 156.951 239.07C158.701 239.07 159.947 240.386 159.947 242.612C159.947 244.838 158.701 246.168 156.951 246.168ZM156.517 244.866C157.679 244.866 158.421 243.928 158.421 242.612C158.421 241.31 157.679 240.372 156.517 240.372C155.831 240.372 155.103 240.778 154.781 241.282V243.956C155.103 244.446 155.831 244.866 156.517 244.866ZM164.457 246.168C162.315 246.168 160.985 244.558 160.985 242.612C160.985 240.68 162.315 239.07 164.457 239.07C166.627 239.07 167.943 240.68 167.943 242.612C167.943 244.558 166.627 246.168 164.457 246.168ZM164.457 244.866C165.717 244.866 166.417 243.816 166.417 242.612C166.417 241.422 165.717 240.372 164.457 240.372C163.211 240.372 162.511 241.422 162.511 242.612C162.511 243.816 163.211 244.866 164.457 244.866ZM170.901 246H169.431V239.238H170.901V240.232C171.405 239.588 172.217 239.084 173.099 239.084V240.54C172.973 240.512 172.819 240.498 172.637 240.498C172.021 240.498 171.195 240.918 170.901 241.394V246ZM176.314 246.168C175.18 246.168 174.578 245.552 174.578 244.432V240.526H173.458V239.238H174.578V237.39H176.048V239.238H177.42V240.526H176.048V244.068C176.048 244.53 176.272 244.866 176.692 244.866C176.972 244.866 177.238 244.754 177.35 244.628L177.7 245.734C177.434 245.986 177 246.168 176.314 246.168ZM184.789 246H183.319V245.104C182.829 245.65 181.989 246.168 180.925 246.168C179.469 246.168 178.755 245.412 178.755 244.026V239.238H180.225V243.494C180.225 244.544 180.757 244.866 181.583 244.866C182.325 244.866 182.969 244.446 183.319 243.984V239.238H184.789V246ZM189.442 248.744C188.294 248.744 187.44 248.492 186.614 247.736L187.3 246.672C187.846 247.302 188.546 247.54 189.442 247.54C190.408 247.54 191.444 247.092 191.444 245.706V244.894C190.926 245.566 190.156 246.014 189.274 246.014C187.552 246.014 186.278 244.768 186.278 242.542C186.278 240.358 187.538 239.07 189.274 239.07C190.128 239.07 190.898 239.462 191.444 240.176V239.238H192.914V245.65C192.914 248.086 191.108 248.744 189.442 248.744ZM189.708 244.712C190.394 244.712 191.122 244.306 191.444 243.802V241.282C191.122 240.778 190.394 240.372 189.708 240.372C188.546 240.372 187.804 241.24 187.804 242.542C187.804 243.844 188.546 244.712 189.708 244.712ZM200.853 246H199.383V245.104C198.893 245.65 198.053 246.168 196.989 246.168C195.533 246.168 194.819 245.412 194.819 244.026V239.238H196.289V243.494C196.289 244.544 196.821 244.866 197.647 244.866C198.389 244.866 199.033 244.446 199.383 243.984V239.238H200.853V246ZM207.789 238.216H206.851L205.773 236.872L204.723 238.216H203.799L205.101 236.2H206.445L207.789 238.216ZM205.885 246.168C203.855 246.168 202.343 244.754 202.343 242.612C202.343 240.652 203.771 239.07 205.773 239.07C207.803 239.07 209.105 240.624 209.105 242.752V243.102H203.883C203.995 244.124 204.765 244.964 206.039 244.964C206.697 244.964 207.481 244.698 207.957 244.222L208.629 245.188C207.957 245.832 206.963 246.168 205.885 246.168ZM207.677 242.066C207.649 241.268 207.103 240.274 205.773 240.274C204.513 240.274 203.939 241.24 203.869 242.066H207.677ZM212.866 246.168C211.718 246.168 210.668 245.804 209.968 245.118L210.64 244.054C211.116 244.544 212.054 245.006 212.936 245.006C213.818 245.006 214.266 244.628 214.266 244.096C214.266 242.766 210.178 243.718 210.178 241.128C210.178 240.022 211.13 239.07 212.838 239.07C213.986 239.07 214.854 239.476 215.47 240.022L214.854 241.058C214.448 240.596 213.692 240.246 212.852 240.246C212.082 240.246 211.592 240.596 211.592 241.072C211.592 242.276 215.68 241.38 215.68 244.068C215.68 245.258 214.686 246.168 212.866 246.168ZM218.224 243.256C217.888 242.934 217.72 242.528 217.72 242.066C217.72 240.358 219.974 240.176 219.974 238.986C219.974 238.44 219.554 237.978 218.644 237.978C217.79 237.978 217.174 238.37 216.698 238.958L215.76 237.908C216.474 237.04 217.552 236.522 218.812 236.522C220.576 236.522 221.654 237.46 221.654 238.72C221.654 240.792 219.148 240.96 219.148 242.22C219.148 242.444 219.274 242.696 219.456 242.85L218.224 243.256ZM218.728 246.154C218.196 246.154 217.748 245.706 217.748 245.174C217.748 244.642 218.196 244.194 218.728 244.194C219.26 244.194 219.708 244.642 219.708 245.174C219.708 245.706 219.26 246.154 218.728 246.154Z" fill="#071824"/>
<g clip-path="url(#clip3_12412_52942)">
<rect x="18" y="278" width="267" height="63" rx="8" fill="#2F4553"/>
<path d="M33.636 301.144C32.1 301.144 30.996 300.628 30.252 299.872L31.176 298.576C31.74 299.164 32.616 299.656 33.72 299.656C34.656 299.656 35.112 299.224 35.112 298.768C35.112 297.352 30.504 298.324 30.504 295.312C30.504 293.98 31.656 292.876 33.54 292.876C34.812 292.876 35.868 293.26 36.66 293.992L35.712 295.24C35.064 294.64 34.2 294.364 33.384 294.364C32.652 294.364 32.244 294.688 32.244 295.168C32.244 296.44 36.84 295.588 36.84 298.576C36.84 300.04 35.796 301.144 33.636 301.144ZM43.3873 301H41.8633V300.268C41.4673 300.712 40.7713 301.144 39.8233 301.144C38.5513 301.144 37.9513 300.448 37.9513 299.32V295.204H39.4753V298.72C39.4753 299.524 39.8953 299.788 40.5433 299.788C41.1313 299.788 41.5993 299.464 41.8633 299.128V295.204H43.3873V301ZM48.2125 301.144C47.5285 301.144 46.8925 300.856 46.4245 300.256V303.208H44.9005V295.204H46.4245V295.936C46.8685 295.372 47.5045 295.06 48.2125 295.06C49.7005 295.06 50.7805 296.164 50.7805 298.096C50.7805 300.028 49.7005 301.144 48.2125 301.144ZM47.7325 299.788C48.6085 299.788 49.1965 299.104 49.1965 298.096C49.1965 297.1 48.6085 296.416 47.7325 296.416C47.2405 296.416 46.6765 296.704 46.4245 297.076V299.128C46.6765 299.488 47.2405 299.788 47.7325 299.788ZM54.5846 301.144C52.6766 301.144 51.5246 299.752 51.5246 298.096C51.5246 296.452 52.6766 295.06 54.5846 295.06C56.5046 295.06 57.6566 296.452 57.6566 298.096C57.6566 299.752 56.5046 301.144 54.5846 301.144ZM54.5846 299.788C55.5326 299.788 56.0726 299.008 56.0726 298.096C56.0726 297.196 55.5326 296.416 54.5846 296.416C53.6366 296.416 53.1086 297.196 53.1086 298.096C53.1086 299.008 53.6366 299.788 54.5846 299.788ZM60.3113 301H58.7873V295.204H60.3113V295.996C60.7193 295.48 61.4393 295.06 62.1593 295.06V296.548C62.0513 296.524 61.9073 296.512 61.7393 296.512C61.2353 296.512 60.5633 296.8 60.3113 297.172V301ZM65.0555 301.144C63.9875 301.144 63.4115 300.592 63.4115 299.56V296.536H62.4515V295.204H63.4115V293.62H64.9475V295.204H66.1235V296.536H64.9475V299.152C64.9475 299.512 65.1395 299.788 65.4755 299.788C65.7035 299.788 65.9195 299.704 66.0035 299.62L66.3275 300.772C66.0995 300.976 65.6915 301.144 65.0555 301.144ZM69.8902 301.144C68.1262 301.144 66.7942 299.956 66.7942 298.096C66.7942 296.416 68.0302 295.06 69.7942 295.06C71.5222 295.06 72.6982 296.356 72.6982 298.252V298.588H68.3902C68.4862 299.32 69.0742 299.932 70.0582 299.932C70.5502 299.932 71.2342 299.716 71.6062 299.356L72.2782 300.34C71.7022 300.868 70.7902 301.144 69.8902 301.144ZM71.2222 297.556C71.1862 297.004 70.8022 296.272 69.7942 296.272C68.8462 296.272 68.4382 296.98 68.3662 297.556H71.2222ZM80.1813 301.144C79.4973 301.144 78.8613 300.856 78.3933 300.256V303.208H76.8693V295.204H78.3933V295.936C78.8373 295.372 79.4733 295.06 80.1813 295.06C81.6693 295.06 82.7493 296.164 82.7493 298.096C82.7493 300.028 81.6693 301.144 80.1813 301.144ZM79.7013 299.788C80.5773 299.788 81.1653 299.104 81.1653 298.096C81.1653 297.1 80.5773 296.416 79.7013 296.416C79.2093 296.416 78.6453 296.704 78.3933 297.076V299.128C78.6453 299.488 79.2093 299.788 79.7013 299.788ZM86.5534 301.144C84.6454 301.144 83.4934 299.752 83.4934 298.096C83.4934 296.452 84.6454 295.06 86.5534 295.06C88.4734 295.06 89.6254 296.452 89.6254 298.096C89.6254 299.752 88.4734 301.144 86.5534 301.144ZM86.5534 299.788C87.5014 299.788 88.0414 299.008 88.0414 298.096C88.0414 297.196 87.5014 296.416 86.5534 296.416C85.6054 296.416 85.0774 297.196 85.0774 298.096C85.0774 299.008 85.6054 299.788 86.5534 299.788ZM92.28 301H90.756V295.204H92.28V295.996C92.688 295.48 93.408 295.06 94.128 295.06V296.548C94.02 296.524 93.876 296.512 93.708 296.512C93.204 296.512 92.532 296.8 92.28 297.172V301ZM97.0242 301.144C95.9562 301.144 95.3802 300.592 95.3802 299.56V296.536H94.4202V295.204H95.3802V293.62H96.9162V295.204H98.0922V296.536H96.9162V299.152C96.9162 299.512 97.1082 299.788 97.4442 299.788C97.6722 299.788 97.8882 299.704 97.9722 299.62L98.2962 300.772C98.0682 300.976 97.6602 301.144 97.0242 301.144ZM104.571 301H103.047V300.268C102.651 300.712 101.955 301.144 101.007 301.144C99.7349 301.144 99.1349 300.448 99.1349 299.32V295.204H100.659V298.72C100.659 299.524 101.079 299.788 101.727 299.788C102.315 299.788 102.783 299.464 103.047 299.128V295.204H104.571V301ZM108.46 303.352C107.464 303.352 106.696 303.124 105.964 302.488L106.648 301.384C107.116 301.9 107.728 302.104 108.46 302.104C109.192 302.104 110.056 301.78 110.056 300.64V300.052C109.6 300.628 108.976 300.964 108.268 300.964C106.816 300.964 105.712 299.944 105.712 298.012C105.712 296.116 106.804 295.06 108.268 295.06C108.964 295.06 109.588 295.36 110.056 295.948V295.204H111.592V300.604C111.592 302.812 109.888 303.352 108.46 303.352ZM108.748 299.608C109.252 299.608 109.804 299.32 110.056 298.948V297.076C109.804 296.692 109.252 296.416 108.748 296.416C107.884 296.416 107.284 297.016 107.284 298.012C107.284 299.008 107.884 299.608 108.748 299.608ZM118.54 301H117.016V300.268C116.62 300.712 115.924 301.144 114.976 301.144C113.704 301.144 113.104 300.448 113.104 299.32V295.204H114.628V298.72C114.628 299.524 115.048 299.788 115.696 299.788C116.284 299.788 116.752 299.464 117.016 299.128V295.204H118.54V301ZM124.493 294.328H123.557L122.681 293.26L121.829 294.328H120.893L121.997 292.6H123.365L124.493 294.328ZM122.777 301.144C121.013 301.144 119.681 299.956 119.681 298.096C119.681 296.416 120.917 295.06 122.681 295.06C124.409 295.06 125.585 296.356 125.585 298.252V298.588H121.277C121.373 299.32 121.961 299.932 122.945 299.932C123.437 299.932 124.121 299.716 124.493 299.356L125.165 300.34C124.589 300.868 123.677 301.144 122.777 301.144ZM124.109 297.556C124.073 297.004 123.689 296.272 122.681 296.272C121.733 296.272 121.325 296.98 121.253 297.556H124.109ZM128.774 301.144C127.766 301.144 126.794 300.808 126.182 300.244L126.842 299.176C127.262 299.572 128.126 299.968 128.846 299.968C129.506 299.968 129.818 299.704 129.818 299.344C129.818 298.384 126.374 299.164 126.374 296.884C126.374 295.912 127.226 295.06 128.75 295.06C129.734 295.06 130.514 295.396 131.09 295.852L130.478 296.896C130.13 296.524 129.47 296.224 128.762 296.224C128.21 296.224 127.85 296.476 127.85 296.8C127.85 297.664 131.282 296.944 131.282 299.284C131.282 300.34 130.382 301.144 128.774 301.144Z" fill="white"/>
<path d="M37.392 325H30.994V315.662H37.392V317.104H32.632V319.526H37.294V320.968H32.632V323.558H37.392V325ZM39.7601 317.412C39.2701 317.412 38.8501 317.006 38.8501 316.502C38.8501 315.998 39.2701 315.592 39.7601 315.592C40.2641 315.592 40.6701 315.998 40.6701 316.502C40.6701 317.006 40.2641 317.412 39.7601 317.412ZM40.5021 325H39.0321V318.238H40.5021V325ZM43.809 322.144H42.535L42.269 315.662H44.061L43.809 322.144ZM43.165 325.14C42.633 325.14 42.199 324.692 42.199 324.174C42.199 323.642 42.633 323.194 43.165 323.194C43.697 323.194 44.145 323.642 44.145 324.174C44.145 324.692 43.697 325.14 43.165 325.14ZM53.9584 325.168C51.2004 325.168 49.0584 323.208 49.0584 320.338C49.0584 317.468 51.2004 315.508 53.9584 315.508C55.8484 315.508 57.0104 316.488 57.7104 317.608L56.3104 318.322C55.8624 317.552 54.9664 316.964 53.9584 316.964C52.1104 316.964 50.7384 318.378 50.7384 320.338C50.7384 322.298 52.1104 323.712 53.9584 323.712C54.9664 323.712 55.8624 323.138 56.3104 322.354L57.7104 323.068C56.9964 324.188 55.8484 325.168 53.9584 325.168ZM62.0313 325.168C59.8893 325.168 58.5593 323.558 58.5593 321.612C58.5593 319.68 59.8893 318.07 62.0313 318.07C64.2013 318.07 65.5173 319.68 65.5173 321.612C65.5173 323.558 64.2013 325.168 62.0313 325.168ZM62.0313 323.866C63.2913 323.866 63.9913 322.816 63.9913 321.612C63.9913 320.422 63.2913 319.372 62.0313 319.372C60.7853 319.372 60.0853 320.422 60.0853 321.612C60.0853 322.816 60.7853 323.866 62.0313 323.866ZM76.7627 325H75.2927V320.59C75.2927 319.862 74.9707 319.372 74.1867 319.372C73.5287 319.372 72.9127 319.834 72.6187 320.268V325H71.1487V320.59C71.1487 319.862 70.8267 319.372 70.0287 319.372C69.3847 319.372 68.7827 319.834 68.4747 320.282V325H67.0047V318.238H68.4747V319.162C68.7547 318.742 69.6507 318.07 70.6727 318.07C71.6807 318.07 72.2967 318.574 72.5207 319.316C72.9127 318.7 73.8087 318.07 74.8167 318.07C76.0627 318.07 76.7627 318.742 76.7627 320.114V325ZM81.7188 325.168C79.5768 325.168 78.2468 323.558 78.2468 321.612C78.2468 319.68 79.5768 318.07 81.7188 318.07C83.8888 318.07 85.2048 319.68 85.2048 321.612C85.2048 323.558 83.8888 325.168 81.7188 325.168ZM81.7188 323.866C82.9788 323.866 83.6788 322.816 83.6788 321.612C83.6788 320.422 82.9788 319.372 81.7188 319.372C80.4728 319.372 79.7728 320.422 79.7728 321.612C79.7728 322.816 80.4728 323.866 81.7188 323.866ZM93.9279 325.168C93.0739 325.168 92.3039 324.79 91.7579 324.062V327.576H90.2879V318.238H91.7579V319.162C92.2619 318.49 93.0459 318.07 93.9279 318.07C95.6779 318.07 96.9239 319.386 96.9239 321.612C96.9239 323.838 95.6779 325.168 93.9279 325.168ZM93.4939 323.866C94.6559 323.866 95.3979 322.928 95.3979 321.612C95.3979 320.31 94.6559 319.372 93.4939 319.372C92.8079 319.372 92.0799 319.778 91.7579 320.282V322.956C92.0799 323.446 92.8079 323.866 93.4939 323.866ZM101.434 325.168C99.2917 325.168 97.9617 323.558 97.9617 321.612C97.9617 319.68 99.2917 318.07 101.434 318.07C103.604 318.07 104.92 319.68 104.92 321.612C104.92 323.558 103.604 325.168 101.434 325.168ZM101.434 323.866C102.694 323.866 103.394 322.816 103.394 321.612C103.394 320.422 102.694 319.372 101.434 319.372C100.188 319.372 99.4877 320.422 99.4877 321.612C99.4877 322.816 100.188 323.866 101.434 323.866ZM112.637 325H111.167V324.076C110.649 324.748 109.865 325.168 108.997 325.168C107.261 325.168 105.987 323.852 105.987 321.626C105.987 319.442 107.247 318.07 108.997 318.07C109.837 318.07 110.621 318.462 111.167 319.176V315.662H112.637V325ZM109.417 323.866C110.117 323.866 110.831 323.474 111.167 322.97V320.282C110.831 319.778 110.117 319.372 109.417 319.372C108.255 319.372 107.513 320.31 107.513 321.626C107.513 322.928 108.255 323.866 109.417 323.866ZM117.664 325.168C115.634 325.168 114.122 323.754 114.122 321.612C114.122 319.652 115.55 318.07 117.552 318.07C119.582 318.07 120.884 319.624 120.884 321.752V322.102H115.662C115.774 323.124 116.544 323.964 117.818 323.964C118.476 323.964 119.26 323.698 119.736 323.222L120.408 324.188C119.736 324.832 118.742 325.168 117.664 325.168ZM119.456 321.066C119.428 320.268 118.882 319.274 117.552 319.274C116.292 319.274 115.718 320.24 115.648 321.066H119.456ZM132.093 325H130.623V320.59C130.623 319.862 130.301 319.372 129.517 319.372C128.859 319.372 128.243 319.834 127.949 320.268V325H126.479V320.59C126.479 319.862 126.157 319.372 125.359 319.372C124.715 319.372 124.113 319.834 123.805 320.282V325H122.335V318.238H123.805V319.162C124.085 318.742 124.981 318.07 126.003 318.07C127.011 318.07 127.627 318.574 127.851 319.316C128.243 318.7 129.139 318.07 130.147 318.07C131.393 318.07 132.093 318.742 132.093 320.114V325ZM137.049 325.168C134.907 325.168 133.577 323.558 133.577 321.612C133.577 319.68 134.907 318.07 137.049 318.07C139.219 318.07 140.535 319.68 140.535 321.612C140.535 323.558 139.219 325.168 137.049 325.168ZM137.049 323.866C138.309 323.866 139.009 322.816 139.009 321.612C139.009 320.422 138.309 319.372 137.049 319.372C135.803 319.372 135.103 320.422 135.103 321.612C135.103 322.816 135.803 323.866 137.049 323.866ZM144.332 325.168C143.184 325.168 142.134 324.804 141.434 324.118L142.106 323.054C142.582 323.544 143.52 324.006 144.402 324.006C145.284 324.006 145.732 323.628 145.732 323.096C145.732 321.766 141.644 322.718 141.644 320.128C141.644 319.022 142.596 318.07 144.304 318.07C145.452 318.07 146.32 318.476 146.936 319.022L146.32 320.058C145.914 319.596 145.158 319.246 144.318 319.246C143.548 319.246 143.058 319.596 143.058 320.072C143.058 321.276 147.146 320.38 147.146 323.068C147.146 324.258 146.152 325.168 144.332 325.168ZM157.822 325H156.352V324.272C155.848 324.846 155.064 325.168 154.168 325.168C153.062 325.168 151.816 324.426 151.816 322.928C151.816 321.374 153.062 320.73 154.168 320.73C155.078 320.73 155.862 321.024 156.352 321.598V320.59C156.352 319.806 155.708 319.33 154.77 319.33C154.014 319.33 153.356 319.61 152.768 320.184L152.166 319.162C152.95 318.42 153.93 318.07 155.008 318.07C156.506 318.07 157.822 318.7 157.822 320.52V325ZM154.742 324.16C155.386 324.16 156.016 323.922 156.352 323.46V322.438C156.016 321.976 155.386 321.738 154.742 321.738C153.916 321.738 153.3 322.214 153.3 322.956C153.3 323.684 153.916 324.16 154.742 324.16ZM160.455 317.412C159.965 317.412 159.545 317.006 159.545 316.502C159.545 315.998 159.965 315.592 160.455 315.592C160.959 315.592 161.365 315.998 161.365 316.502C161.365 317.006 160.959 317.412 160.455 317.412ZM158.957 327.744C158.173 327.744 157.823 327.59 157.361 327.254L157.795 326.162C158.047 326.386 158.313 326.54 158.733 326.54C159.307 326.54 159.727 326.19 159.727 325.392V318.238H161.197V325.392C161.197 326.834 160.441 327.744 158.957 327.744ZM169.138 325H167.668V324.104C167.178 324.65 166.338 325.168 165.274 325.168C163.818 325.168 163.104 324.412 163.104 323.026V318.238H164.574V322.494C164.574 323.544 165.106 323.866 165.932 323.866C166.674 323.866 167.318 323.446 167.668 322.984V318.238H169.138V325ZM177.278 325H175.808V324.076C175.29 324.748 174.506 325.168 173.638 325.168C171.902 325.168 170.628 323.852 170.628 321.626C170.628 319.442 171.888 318.07 173.638 318.07C174.478 318.07 175.262 318.462 175.808 319.176V315.662H177.278V325ZM174.058 323.866C174.758 323.866 175.472 323.474 175.808 322.97V320.282C175.472 319.778 174.758 319.372 174.058 319.372C172.896 319.372 172.154 320.31 172.154 321.626C172.154 322.928 172.896 323.866 174.058 323.866ZM184.782 325H183.312V324.272C182.808 324.846 182.024 325.168 181.128 325.168C180.022 325.168 178.776 324.426 178.776 322.928C178.776 321.374 180.022 320.73 181.128 320.73C182.038 320.73 182.822 321.024 183.312 321.598V320.59C183.312 319.806 182.668 319.33 181.73 319.33C180.974 319.33 180.316 319.61 179.728 320.184L179.126 319.162C179.91 318.42 180.89 318.07 181.968 318.07C183.466 318.07 184.782 318.7 184.782 320.52V325ZM181.702 324.16C182.346 324.16 182.976 323.922 183.312 323.46V322.438C182.976 321.976 182.346 321.738 181.702 321.738C180.876 321.738 180.26 322.214 180.26 322.956C180.26 323.684 180.876 324.16 181.702 324.16ZM188.158 325H186.688V318.238H188.158V319.232C188.662 318.588 189.474 318.084 190.356 318.084V319.54C190.23 319.512 190.076 319.498 189.894 319.498C189.278 319.498 188.452 319.918 188.158 320.394V325ZM193.236 322.256C192.9 321.934 192.732 321.528 192.732 321.066C192.732 319.358 194.986 319.176 194.986 317.986C194.986 317.44 194.566 316.978 193.656 316.978C192.802 316.978 192.186 317.37 191.71 317.958L190.772 316.908C191.486 316.04 192.564 315.522 193.824 315.522C195.588 315.522 196.666 316.46 196.666 317.72C196.666 319.792 194.16 319.96 194.16 321.22C194.16 321.444 194.286 321.696 194.468 321.85L193.236 322.256ZM193.74 325.154C193.208 325.154 192.76 324.706 192.76 324.174C192.76 323.642 193.208 323.194 193.74 323.194C194.272 323.194 194.72 323.642 194.72 324.174C194.72 324.706 194.272 325.154 193.74 325.154Z" fill="white"/>
</g>
<rect x="58" y="357" width="267" height="58" rx="8" fill="#E9113C"/>
<path d="M76.118 370.128H77.84V372.368H76.118V370.128ZM70.994 371.346H82.992V374.356H81.256V372.816H72.66V374.356H70.994V371.346ZM72.24 373.922H81.858V375.28H72.24V373.922ZM70.882 378.36H83.188V379.816H70.882V378.36ZM72.464 376.12H81.578V377.478H72.464V376.12ZM77.826 378.654C78.652 380.502 80.472 381.524 83.384 381.832C83.034 382.182 82.6 382.854 82.39 383.302C79.184 382.784 77.392 381.454 76.314 378.962L77.826 378.654ZM76.076 373.124H77.77V377.016C77.77 379.48 76.748 381.888 71.652 383.26C71.47 382.896 70.98 382.252 70.616 381.902C75.46 380.796 76.076 378.878 76.076 377.002V373.124ZM90.594 375.77H95.214V377.1H90.594V375.77ZM89.32 377.954H96.586V379.312H89.32V377.954ZM89.964 371.206H92.19V372.312H89.964V371.206ZM89.67 373.222L90.202 372.508C90.65 372.718 91.21 373.054 91.476 373.32L90.944 374.118C90.664 373.852 90.118 373.46 89.67 373.222ZM88.83 374.328L89.432 373.67C89.866 373.936 90.398 374.342 90.65 374.608L90.034 375.336C89.782 375.042 89.264 374.608 88.83 374.328ZM94.374 380.348L95.648 379.69C96.292 380.418 97.062 381.412 97.384 382.098L96.04 382.826C95.732 382.154 95.018 381.104 94.374 380.348ZM91.742 371.206H91.994L92.246 371.164L93.156 371.486C92.554 374.412 91.098 376.456 89.152 377.59C88.97 377.254 88.578 376.736 88.284 376.484C89.95 375.616 91.294 373.684 91.742 371.444V371.206ZM94.374 371.108H96.474V372.298H94.374V371.108ZM90.048 370.156L91.336 370.436C90.804 372.2 89.824 373.782 88.69 374.79C88.48 374.552 87.962 374.118 87.682 373.922C88.774 373.054 89.628 371.668 90.048 370.156ZM95.928 371.108H96.236L96.502 371.024L97.426 371.556C97.006 372.816 96.32 374.174 95.606 375.014C95.41 374.72 94.976 374.286 94.71 374.076C95.242 373.376 95.718 372.214 95.928 371.374V371.108ZM92.162 378.584H93.744V381.706C93.744 382.42 93.618 382.798 93.142 383.022C92.666 383.246 92.05 383.26 91.21 383.26C91.14 382.84 90.902 382.238 90.706 381.846C91.21 381.86 91.784 381.86 91.952 381.86C92.106 381.86 92.162 381.818 92.162 381.678V378.584ZM89.712 379.76L91.154 380.152C90.748 381.146 90.062 382.21 89.432 382.868C89.138 382.63 88.522 382.252 88.172 382.07C88.802 381.482 89.39 380.614 89.712 379.76ZM93.828 370.366C94.402 373.04 95.62 375.266 97.748 376.274C97.426 376.554 96.978 377.128 96.768 377.52C94.43 376.26 93.198 373.796 92.512 370.618L93.828 370.366ZM84.966 370.716H87.822V372.214H86.422V383.274H84.966V370.716ZM87.36 370.716H87.598L87.808 370.66L88.816 371.234C88.522 372.494 88.144 374.132 87.822 375.252C88.48 376.4 88.62 377.45 88.62 378.318C88.62 379.242 88.452 379.858 88.088 380.152C87.892 380.32 87.668 380.404 87.388 380.446C87.192 380.474 86.94 380.488 86.674 380.488C86.674 380.096 86.604 379.508 86.394 379.13C86.548 379.144 86.688 379.144 86.8 379.144C86.912 379.144 87.024 379.102 87.094 379.018C87.22 378.892 87.262 378.542 87.262 378.108C87.262 377.394 87.178 376.442 86.562 375.392C86.87 374.104 87.206 372.074 87.36 371.192V370.716ZM106.274 372.41C106.078 373.838 105.798 375.476 105.308 377.128C104.468 379.956 103.264 381.692 101.738 381.692C100.17 381.692 98.882 379.97 98.882 377.604C98.882 374.384 101.696 371.612 105.322 371.612C108.78 371.612 110.978 374.02 110.978 377.086C110.978 380.026 109.172 382.112 105.644 382.658L104.58 381.006C105.126 380.936 105.518 380.866 105.896 380.782C107.674 380.348 109.074 379.074 109.074 377.016C109.074 374.818 107.702 373.25 105.28 373.25C102.312 373.25 100.688 375.672 100.688 377.436C100.688 378.85 101.248 379.536 101.78 379.536C102.382 379.536 102.914 378.64 103.502 376.75C103.908 375.434 104.216 373.824 104.356 372.354L106.274 372.41ZM123.662 373.838C123.228 374.09 122.78 374.342 122.262 374.594C121.394 375.028 119.644 375.854 118.356 376.68C117.194 377.436 116.41 378.248 116.41 379.214C116.41 380.222 117.39 380.768 119.336 380.768C120.764 380.768 122.654 380.544 123.9 380.25L123.886 382.266C122.682 382.462 121.212 382.616 119.392 382.616C116.592 382.616 114.478 381.832 114.478 379.424C114.478 377.646 115.78 376.4 117.446 375.308C118.776 374.426 120.54 373.558 121.394 373.068C121.926 372.76 122.318 372.522 122.682 372.228L123.662 373.838ZM116.62 370.842C117.292 372.704 118.174 374.384 118.832 375.56L117.236 376.484C116.466 375.21 115.626 373.376 114.856 371.57L116.62 370.842ZM129.038 371.836C130.074 371.948 131.376 372.004 132.86 372.004C134.232 372.004 135.842 371.92 136.906 371.808V373.67C135.926 373.754 134.204 373.838 132.86 373.838C131.404 373.838 130.186 373.768 129.038 373.684V371.836ZM130.214 377.758C130.088 378.262 129.976 378.71 129.976 379.186C129.976 380.068 130.844 380.726 132.86 380.726C134.736 380.726 136.528 380.516 137.774 380.166L137.788 382.14C136.556 382.42 134.876 382.602 132.916 382.602C129.724 382.602 128.1 381.538 128.1 379.606C128.1 378.808 128.282 378.122 128.38 377.59L130.214 377.758ZM143.024 371.444C143.262 371.472 143.696 371.5 144.172 371.5C144.914 371.5 148.036 371.458 148.96 371.402C149.282 371.374 149.702 371.304 149.968 371.248L150.906 372.48C150.64 372.606 150.318 372.83 150.122 372.956C149.324 373.558 147.966 374.622 146.762 375.56C147.21 375.42 147.728 375.364 148.078 375.364C150.542 375.364 152.236 376.82 152.236 378.78C152.236 381.552 149.814 383.176 144.634 382.77L144.144 380.936C148.008 381.44 150.304 380.628 150.304 378.78C150.304 377.674 149.296 376.848 147.7 376.848C145.516 376.848 144.004 378.234 142.492 379.76L141.176 378.374C143.052 376.946 146.496 374.118 147.602 372.97C146.846 372.998 144.9 373.096 144.228 373.138C143.878 373.166 143.374 373.222 143.066 373.264L143.024 371.444ZM157.57 382.966C156.716 381.93 155.526 380.726 154.546 379.886L156.016 378.626C157.01 379.438 158.354 380.81 159.068 381.678L157.57 382.966ZM170.142 370.954H179.914V383.078H178.108V372.648H171.878V383.092H170.142V370.954ZM171.332 375.658H178.864V377.324H171.332V375.658ZM171.318 380.488H178.864V382.182H171.318V380.488ZM182.812 372.83H195.202V374.538H182.812V372.83ZM185.696 379.186H192.192V380.894H185.696V379.186ZM188.09 370.114H189.882V383.26H188.09V370.114ZM187.586 373.446L189.126 373.936C187.922 376.988 185.934 379.662 183.484 381.202C183.204 380.782 182.644 380.138 182.266 379.802C184.562 378.542 186.592 376.022 187.586 373.446ZM190.386 373.488C191.408 375.98 193.452 378.416 195.804 379.634C195.384 379.984 194.782 380.684 194.502 381.16C192.038 379.648 190.078 376.974 188.86 373.992L190.386 373.488ZM202.58 377.996H208.726V383.204H207.088V379.494H204.148V383.26H202.58V377.996ZM202.3 372.942H208.418V376.582H206.808V374.37H202.3V372.942ZM204.008 371.108L205.646 371.234C205.408 372.998 205.03 375.238 204.75 376.582H203.112C203.434 375.168 203.798 372.872 204.008 371.108ZM202.076 370.52H209.132V371.948H202.076V370.52ZM201.558 375.784H209.622V377.254H201.558V375.784ZM203.21 381.23H208.04V382.728H203.21V381.23ZM197.092 374.51H201.138V375.77H197.092V374.51ZM197.176 370.548H201.152V371.822H197.176V370.548ZM197.092 376.47H201.138V377.73H197.092V376.47ZM196.406 372.494H201.642V373.81H196.406V372.494ZM197.862 378.444H201.236V382.7H197.862V381.384H199.794V379.774H197.862V378.444ZM197.05 378.444H198.464V383.26H197.05V378.444ZM216.804 370.772C216.692 371.29 216.51 372.116 216.118 373.124C215.824 373.81 215.418 374.608 215.026 375.168C215.404 375 216.146 374.902 216.622 374.902C217.784 374.902 218.666 375.588 218.666 376.89C218.666 377.646 218.708 379.172 218.722 380.054H217.042C217.098 379.396 217.126 378.206 217.112 377.45C217.112 376.554 216.552 376.26 215.964 376.26C215.194 376.26 214.312 376.722 213.78 377.226C213.36 377.646 212.968 378.15 212.492 378.766L210.994 377.646C212.786 375.994 213.864 374.482 214.452 372.942C214.732 372.186 214.914 371.332 214.956 370.618L216.804 370.772ZM211.526 372.074C212.24 372.172 213.276 372.228 213.99 372.228C215.838 372.228 218.372 372.13 220.402 371.766L220.388 373.39C218.414 373.67 215.6 373.796 213.892 373.796C213.318 373.796 212.296 373.768 211.526 373.698V372.074ZM222.614 376.05C222.18 376.176 221.424 376.456 220.948 376.638C220.038 376.988 218.778 377.492 217.462 378.164C216.188 378.822 215.502 379.424 215.502 380.194C215.502 380.964 216.174 381.174 217.532 381.174C218.722 381.174 220.29 381.02 221.522 380.768L221.466 382.574C220.528 382.7 218.82 382.826 217.49 382.826C215.306 382.826 213.668 382.28 213.668 380.474C213.668 378.528 215.67 377.38 217.35 376.54C218.638 375.868 219.52 375.532 220.36 375.14C220.906 374.902 221.396 374.678 221.928 374.412L222.614 376.05ZM230.608 377.604H237.062V383.204H235.382V379.116H232.19V383.274H230.608V377.604ZM236.082 370.254L237.258 371.654C235.354 372.214 232.778 372.536 230.566 372.69C230.51 372.284 230.286 371.654 230.09 371.276C232.218 371.094 234.598 370.73 236.082 370.254ZM232.89 371.57H234.612V378.36H232.89V371.57ZM229.866 374.174H237.636V375.756H229.866V374.174ZM231.672 381.076H236.18V382.588H231.672V381.076ZM225.092 374.51H229.32V375.77H225.092V374.51ZM225.176 370.548H229.32V371.822H225.176V370.548ZM225.092 376.47H229.32V377.73H225.092V376.47ZM224.406 372.494H229.768V373.81H224.406V372.494ZM225.918 378.444H229.39V382.7H225.918V381.384H227.948V379.774H225.918V378.444ZM225.05 378.444H226.464V383.26H225.05V378.444ZM247.142 370.716C247.1 370.954 247.058 371.696 247.044 371.92C247.002 372.844 247.03 375.7 247.044 376.82L245.294 376.232C245.294 375.364 245.294 372.676 245.238 371.934C245.196 371.374 245.14 370.898 245.112 370.716H247.142ZM239.218 372.466C241.304 372.466 245 372.354 246.75 372.354C248.178 372.354 250.306 372.34 251.09 372.354L251.062 374.006C250.194 373.964 248.766 373.922 246.708 373.922C244.16 373.922 241.374 374.034 239.26 374.146L239.218 372.466ZM246.806 376.61C246.806 378.892 245.966 380.026 244.356 380.026C243.278 380.026 241.934 379.172 241.934 377.464C241.934 375.882 243.222 374.846 244.734 374.846C246.582 374.846 247.548 376.204 247.548 377.94C247.548 379.774 246.47 382.084 243.054 383.05L241.57 381.566C243.95 381.048 245.812 380.11 245.812 377.66C245.812 376.75 245.322 376.316 244.706 376.316C244.16 376.316 243.614 376.694 243.614 377.436C243.614 378.066 244.132 378.472 244.706 378.472C245.364 378.472 245.938 377.912 245.49 376.246L246.806 376.61ZM255.038 371.836C256.074 371.948 257.376 372.004 258.86 372.004C260.232 372.004 261.842 371.92 262.906 371.808V373.67C261.926 373.754 260.204 373.838 258.86 373.838C257.404 373.838 256.186 373.768 255.038 373.684V371.836ZM256.214 377.758C256.088 378.262 255.976 378.71 255.976 379.186C255.976 380.068 256.844 380.726 258.86 380.726C260.736 380.726 262.528 380.516 263.774 380.166L263.788 382.14C262.556 382.42 260.876 382.602 258.916 382.602C255.724 382.602 254.1 381.538 254.1 379.606C254.1 378.808 254.282 378.122 254.38 377.59L256.214 377.758ZM277.662 373.838C277.228 374.09 276.78 374.342 276.262 374.594C275.394 375.028 273.644 375.854 272.356 376.68C271.194 377.436 270.41 378.248 270.41 379.214C270.41 380.222 271.39 380.768 273.336 380.768C274.764 380.768 276.654 380.544 277.9 380.25L277.886 382.266C276.682 382.462 275.212 382.616 273.392 382.616C270.592 382.616 268.478 381.832 268.478 379.424C268.478 377.646 269.78 376.4 271.446 375.308C272.776 374.426 274.54 373.558 275.394 373.068C275.926 372.76 276.318 372.522 276.682 372.228L277.662 373.838ZM270.62 370.842C271.292 372.704 272.174 374.384 272.832 375.56L271.236 376.484C270.466 375.21 269.626 373.376 268.856 371.57L270.62 370.842ZM286.258 372.214C287.98 372.452 290.78 372.382 292.278 372.2V374.006C290.57 374.174 288.022 374.174 286.272 374.006L286.258 372.214ZM287.378 378.192C287.266 378.668 287.21 379.004 287.21 379.368C287.21 379.998 287.756 380.376 289.184 380.376C290.43 380.376 291.466 380.264 292.684 379.998L292.726 381.888C291.816 382.07 290.682 382.168 289.1 382.168C286.692 382.168 285.53 381.3 285.53 379.872C285.53 379.312 285.614 378.766 285.782 378.052L287.378 378.192ZM284.102 371.276C284.004 371.57 283.822 372.284 283.766 372.536C283.57 373.46 283.08 376.26 283.08 377.66C283.08 377.94 283.094 378.29 283.136 378.57C283.346 378.094 283.57 377.618 283.78 377.142L284.648 377.828C284.242 379.004 283.78 380.516 283.64 381.258C283.598 381.468 283.556 381.776 283.556 381.916C283.57 382.07 283.57 382.308 283.584 382.504L281.974 382.602C281.694 381.65 281.428 379.942 281.428 378.038C281.428 375.924 281.848 373.572 282.002 372.48C282.058 372.102 282.128 371.57 282.142 371.122L284.102 371.276ZM299.586 371.15H306.32V372.76H299.586V371.15ZM305.578 371.15H307.314C307.314 371.15 307.3 371.794 307.3 372.018C307.146 379.018 307.006 381.468 306.474 382.224C306.082 382.798 305.718 382.966 305.186 383.078C304.682 383.176 303.912 383.162 303.156 383.134C303.128 382.658 302.918 381.888 302.624 381.398C303.352 381.468 304.01 381.468 304.332 381.468C304.598 381.468 304.738 381.398 304.892 381.188C305.298 380.67 305.452 378.136 305.578 371.57V371.15ZM294.28 374.412L300.258 373.278L300.524 374.79L294.56 375.966L294.28 374.412ZM295.862 370.534H297.528V378.276C297.528 378.85 297.556 378.92 297.822 378.92C297.92 378.92 298.382 378.92 298.522 378.92C298.788 378.92 298.83 378.598 298.872 377.086C299.222 377.38 299.908 377.674 300.356 377.786C300.188 379.83 299.796 380.516 298.69 380.516C298.41 380.516 297.752 380.516 297.514 380.516C296.198 380.516 295.862 379.998 295.862 378.262V370.534ZM301.714 371.906H303.394C303.324 376.736 303.17 380.978 299.474 383.344C299.236 382.896 298.718 382.294 298.284 381.986C301.672 379.956 301.644 376.26 301.714 371.906ZM75.054 387.758C74.858 388.444 74.564 389.886 74.48 390.67C75.152 389.592 76.384 388.402 77.952 388.402C79.898 388.402 81.41 390.32 81.41 393.4C81.41 397.362 78.988 399.238 75.278 399.924L74.214 398.3C77.336 397.824 79.52 396.788 79.52 393.4C79.52 391.244 78.792 390.04 77.63 390.04C75.978 390.04 74.522 392.532 74.466 394.366C74.438 394.758 74.452 395.206 74.522 395.85L72.8 395.976C72.716 395.43 72.632 394.576 72.632 393.638C72.632 392.322 72.814 390.6 73.024 389.144C73.08 388.626 73.122 388.066 73.136 387.688L75.054 387.758ZM86.254 394.142H95.704V400.19H93.996V395.542H87.906V400.246H86.254V394.142ZM87.36 396.34H94.598V397.558H87.36V396.34ZM85.134 388.206H90.412V389.48H85.134V388.206ZM91.224 388.206H96.866V389.48H91.224V388.206ZM84.672 390.278H90.594V391.608H84.672V390.278ZM91.014 390.278H97.328V391.608H91.014V390.278ZM87.332 398.398H94.556V399.798H87.332V398.398ZM87.122 387.1H88.718V389.312C88.718 391.048 88.2 393.302 85.498 394.786C85.274 394.45 84.756 393.932 84.392 393.652C86.898 392.462 87.122 390.586 87.122 389.298V387.1ZM93.142 387.1H94.752V389.55C94.752 391.216 94.178 393.176 91.546 394.422C91.322 394.072 90.832 393.54 90.482 393.26C92.876 392.322 93.142 390.712 93.142 389.522V387.1ZM94.794 390.516C95.312 391.79 96.348 392.91 97.706 393.442C97.342 393.736 96.88 394.31 96.656 394.702C95.158 393.974 94.094 392.546 93.492 390.88L94.794 390.516ZM87.136 392.182L88.158 391.202C88.886 391.72 89.936 392.462 90.482 392.924L89.404 394.03C88.9 393.554 87.878 392.742 87.136 392.182ZM102.368 387.66C103.936 387.954 106.624 388.248 108.066 388.332L107.842 389.984C106.372 389.858 103.768 389.55 102.088 389.284L102.368 387.66ZM108.57 392.098C108.192 392.35 107.898 392.602 107.646 392.812C107.016 393.358 105.7 394.576 105.364 394.926C105.49 394.926 105.742 394.968 105.91 395.038C106.302 395.15 106.554 395.458 106.75 395.99C106.876 396.354 107.03 396.886 107.142 397.264C107.282 397.698 107.59 397.908 108.136 397.908C109.2 397.908 110.166 397.81 110.88 397.67L110.754 399.504C110.18 399.602 108.738 399.7 108.01 399.7C106.694 399.7 105.966 399.406 105.63 398.51C105.476 398.09 105.322 397.432 105.21 397.082C105.056 396.578 104.762 396.396 104.468 396.396C104.188 396.396 103.894 396.62 103.558 396.97C103.068 397.46 102.018 398.608 101.052 399.826L99.4 398.678C99.652 398.454 99.988 398.16 100.366 397.796C101.094 397.068 103.95 394.226 105.224 392.882C104.244 392.91 102.578 393.05 101.78 393.12C101.29 393.162 100.856 393.232 100.562 393.288L100.408 391.356C100.73 391.384 101.234 391.398 101.738 391.398C102.41 391.384 105.574 391.244 106.75 391.104C107.002 391.076 107.394 390.992 107.534 390.936L108.57 392.098ZM112.297 389.382C112.843 389.368 113.403 389.34 113.669 389.312C114.845 389.2 117.141 389.004 119.717 388.78C121.159 388.654 122.685 388.57 123.679 388.528L123.693 390.334C122.937 390.334 121.733 390.348 120.977 390.516C119.297 390.964 118.023 392.784 118.023 394.436C118.023 396.746 120.179 397.572 122.545 397.698L121.901 399.616C118.961 399.434 116.189 397.852 116.189 394.814C116.189 392.798 117.323 391.216 118.275 390.502C116.959 390.642 114.103 390.936 112.479 391.3L112.297 389.382ZM131.171 387.786C131.045 388.304 130.989 388.668 130.919 389.032C130.751 390.236 130.093 394.856 130.093 396.27C130.093 397.432 130.793 398.062 132.165 398.062C134.125 398.062 135.203 397.152 135.203 396.004C135.203 395.066 134.671 394.156 133.761 393.302L135.721 392.882C136.659 394.058 137.079 395.038 137.079 396.228C137.079 398.342 135.189 399.868 132.123 399.868C129.911 399.868 128.357 398.916 128.357 396.564C128.357 395.136 129.029 390.88 129.169 388.92C129.225 388.276 129.225 387.996 129.197 387.674L131.171 387.786ZM126.173 389.522C127.391 389.928 129.127 390.11 130.555 390.11C131.633 390.11 132.627 390.04 133.327 389.914L133.271 391.594C132.445 391.678 131.675 391.72 130.499 391.72C129.085 391.72 127.377 391.496 126.089 391.132L126.173 389.522ZM125.865 392.994C127.377 393.512 129.001 393.624 130.415 393.624C131.269 393.624 132.305 393.568 133.215 393.456L133.173 395.122C132.403 395.206 131.577 395.248 130.695 395.248C128.833 395.248 127.055 395.052 125.781 394.688L125.865 392.994ZM141.958 389.004C141.86 389.494 141.79 390.32 141.79 390.712C141.79 391.622 141.79 392.658 141.874 393.68C142.07 395.696 142.49 397.082 143.372 397.082C144.044 397.082 144.59 395.43 144.856 394.324L146.27 396.018C145.332 398.468 144.464 399.308 143.344 399.308C141.79 399.308 140.46 397.936 140.068 394.184C139.928 392.896 139.914 391.244 139.914 390.39C139.914 390.012 139.9 389.41 139.802 388.976L141.958 389.004ZM148.958 389.312C150.288 390.922 151.366 394.422 151.52 396.564L149.672 397.292C149.462 395.024 148.706 391.636 147.18 389.9L148.958 389.312ZM155.958 389.004C155.86 389.494 155.79 390.32 155.79 390.712C155.79 391.622 155.79 392.658 155.874 393.68C156.07 395.696 156.49 397.082 157.372 397.082C158.044 397.082 158.59 395.43 158.856 394.324L160.27 396.018C159.332 398.468 158.464 399.308 157.344 399.308C155.79 399.308 154.46 397.936 154.068 394.184C153.928 392.896 153.914 391.244 153.914 390.39C153.914 390.012 153.9 389.41 153.802 388.976L155.958 389.004ZM162.958 389.312C164.288 390.922 165.366 394.422 165.52 396.564L163.672 397.292C163.462 395.024 162.706 391.636 161.18 389.9L162.958 389.312ZM166.874 389.41C167.42 389.396 167.98 389.368 168.246 389.34C169.408 389.228 171.718 389.032 174.28 388.808C175.736 388.696 177.262 388.598 178.256 388.556L178.27 390.362C177.514 390.362 176.31 390.376 175.554 390.544C173.874 390.992 172.6 392.812 172.6 394.478C172.6 396.774 174.756 397.614 177.122 397.726L176.464 399.644C173.538 399.462 170.766 397.88 170.766 394.842C170.766 392.84 171.9 391.244 172.838 390.53C171.536 390.67 168.666 390.978 167.056 391.328L166.874 389.41ZM176.268 391.734C176.604 392.224 177.108 393.078 177.374 393.638L176.324 394.1C175.96 393.344 175.666 392.784 175.232 392.168L176.268 391.734ZM177.822 391.09C178.186 391.58 178.718 392.406 179.012 392.952L177.962 393.456C177.584 392.7 177.262 392.168 176.814 391.552L177.822 391.09ZM189.05 387.716C189.008 387.954 188.966 388.696 188.952 388.92C188.91 389.844 188.938 392.7 188.952 393.82L187.202 393.232C187.202 392.364 187.202 389.676 187.146 388.934C187.104 388.374 187.048 387.898 187.02 387.716H189.05ZM181.126 389.466C183.212 389.466 186.908 389.354 188.658 389.354C190.086 389.354 192.214 389.34 192.998 389.354L192.97 391.006C192.102 390.964 190.674 390.922 188.616 390.922C186.068 390.922 183.282 391.034 181.168 391.146L181.126 389.466ZM188.714 393.61C188.714 395.892 187.874 397.026 186.264 397.026C185.186 397.026 183.842 396.172 183.842 394.464C183.842 392.882 185.13 391.846 186.642 391.846C188.49 391.846 189.456 393.204 189.456 394.94C189.456 396.774 188.378 399.084 184.962 400.05L183.478 398.566C185.858 398.048 187.72 397.11 187.72 394.66C187.72 393.75 187.23 393.316 186.614 393.316C186.068 393.316 185.522 393.694 185.522 394.436C185.522 395.066 186.04 395.472 186.614 395.472C187.272 395.472 187.846 394.912 187.398 393.246L188.714 393.61ZM200.362 387.954C200.278 388.318 200.194 388.766 200.11 389.116C199.984 389.746 199.802 390.614 199.662 391.328C199.2 393.302 198.066 397.292 196.61 399.658L194.776 398.93C196.442 396.69 197.492 392.994 197.884 391.23C198.15 389.97 198.304 388.78 198.29 387.73L200.362 387.954ZM205.192 389.256C206.046 390.474 207.222 393.134 207.656 394.478L205.878 395.304C205.514 393.736 204.52 391.216 203.512 389.97L205.192 389.256ZM194.692 390.824C195.196 390.852 195.672 390.838 196.19 390.824C197.31 390.796 199.956 390.488 201.006 390.488C202.476 390.488 203.526 391.146 203.526 393.176C203.526 394.828 203.33 397.096 202.742 398.3C202.266 399.28 201.496 399.588 200.446 399.588C199.9 399.588 199.242 399.504 198.752 399.392L198.458 397.544C199.004 397.698 199.802 397.838 200.166 397.838C200.642 397.838 200.992 397.698 201.216 397.236C201.608 396.452 201.79 394.744 201.79 393.372C201.79 392.252 201.3 392.084 200.432 392.084C199.592 392.084 197.184 392.392 196.414 392.49C196.008 392.546 195.28 392.644 194.86 392.714L194.692 390.824ZM213.83 395.402C213.536 393.204 216.518 392.714 216.518 391.356C216.518 390.502 215.846 390.026 214.74 390.026C213.886 390.026 213.186 390.418 212.5 391.132L211.352 390.082C212.248 389.046 213.48 388.36 214.978 388.36C217.008 388.36 218.492 389.312 218.492 391.174C218.492 393.218 215.426 393.47 215.65 395.402H213.83ZM214.754 399.14C214.026 399.14 213.508 398.622 213.508 397.894C213.508 397.166 214.04 396.662 214.754 396.662C215.454 396.662 215.986 397.166 215.986 397.894C215.986 398.622 215.454 399.14 214.754 399.14Z" fill="white"/>
<rect width="343" height="68" transform="translate(0 467)" fill="#213743"/>
<path d="M31.296 506H29.296L27.216 498.128L25.152 506H23.152L20.096 495.328H22.192L24.272 503.552L26.48 495.328H27.968L30.176 503.552L32.24 495.328H34.336L31.296 506ZM36.7368 506H35.0568V498.272H36.7368V499.408C37.3128 498.672 38.2408 498.096 39.2488 498.096V499.76C39.1048 499.728 38.9288 499.712 38.7208 499.712C38.0168 499.712 37.0728 500.192 36.7368 500.736V506ZM41.4356 497.328C40.8756 497.328 40.3956 496.864 40.3956 496.288C40.3956 495.712 40.8756 495.248 41.4356 495.248C42.0116 495.248 42.4756 495.712 42.4756 496.288C42.4756 496.864 42.0116 497.328 41.4356 497.328ZM42.2836 506H40.6036V498.272H42.2836V506ZM46.783 506.192C45.487 506.192 44.799 505.488 44.799 504.208V499.744H43.519V498.272H44.799V496.16H46.479V498.272H48.047V499.744H46.479V503.792C46.479 504.32 46.735 504.704 47.215 504.704C47.535 504.704 47.839 504.576 47.967 504.432L48.367 505.696C48.063 505.984 47.567 506.192 46.783 506.192ZM53.1404 506.192C50.8204 506.192 49.0924 504.576 49.0924 502.128C49.0924 499.888 50.7244 498.08 53.0124 498.08C55.3324 498.08 56.8204 499.856 56.8204 502.288V502.688H50.8524C50.9804 503.856 51.8604 504.816 53.3164 504.816C54.0684 504.816 54.9644 504.512 55.5084 503.968L56.2764 505.072C55.5084 505.808 54.3724 506.192 53.1404 506.192ZM55.1884 501.504C55.1564 500.592 54.5324 499.456 53.0124 499.456C51.5724 499.456 50.9164 500.56 50.8364 501.504H55.1884ZM68.988 506H67.308V505.168C66.732 505.824 65.836 506.192 64.812 506.192C63.548 506.192 62.124 505.344 62.124 503.632C62.124 501.856 63.548 501.12 64.812 501.12C65.852 501.12 66.748 501.456 67.308 502.112V500.96C67.308 500.064 66.572 499.52 65.5 499.52C64.636 499.52 63.884 499.84 63.212 500.496L62.524 499.328C63.42 498.48 64.54 498.08 65.772 498.08C67.484 498.08 68.988 498.8 68.988 500.88V506ZM65.468 505.04C66.204 505.04 66.924 504.768 67.308 504.24V503.072C66.924 502.544 66.204 502.272 65.468 502.272C64.524 502.272 63.82 502.816 63.82 503.664C63.82 504.496 64.524 505.04 65.468 505.04ZM76.9555 506H75.2755V498.272H76.9555V499.408C77.5315 498.672 78.4595 498.096 79.4675 498.096V499.76C79.3235 499.728 79.1475 499.712 78.9395 499.712C78.2355 499.712 77.2915 500.192 76.9555 500.736V506ZM84.3904 506.192C82.0704 506.192 80.3424 504.576 80.3424 502.128C80.3424 499.888 81.9744 498.08 84.2624 498.08C86.5824 498.08 88.0704 499.856 88.0704 502.288V502.688H82.1024C82.2304 503.856 83.1104 504.816 84.5664 504.816C85.3184 504.816 86.2144 504.512 86.7584 503.968L87.5264 505.072C86.7584 505.808 85.6224 506.192 84.3904 506.192ZM86.4384 501.504C86.4064 500.592 85.7824 499.456 84.2624 499.456C82.8224 499.456 82.1664 500.56 82.0864 501.504H86.4384ZM93.8886 506.192C92.9126 506.192 92.0326 505.76 91.4086 504.928V508.944H89.7286V498.272H91.4086V499.328C91.9846 498.56 92.8806 498.08 93.8886 498.08C95.8886 498.08 97.3126 499.584 97.3126 502.128C97.3126 504.672 95.8886 506.192 93.8886 506.192ZM93.3926 504.704C94.7206 504.704 95.5686 503.632 95.5686 502.128C95.5686 500.64 94.7206 499.568 93.3926 499.568C92.6086 499.568 91.7766 500.032 91.4086 500.608V503.664C91.7766 504.224 92.6086 504.704 93.3926 504.704ZM100.659 506H98.9786V495.328H100.659V506ZM102.502 509.024L102.758 507.52C102.934 507.6 103.206 507.648 103.398 507.648C103.926 507.648 104.278 507.488 104.502 506.976L104.886 506.096L101.718 498.272H103.51L105.766 504.064L108.022 498.272H109.83L106.102 507.392C105.574 508.704 104.646 509.12 103.446 509.136C103.206 509.136 102.742 509.088 102.502 509.024ZM110.874 506.176C110.266 506.176 109.754 505.664 109.754 505.056C109.754 504.448 110.266 503.936 110.874 503.936C111.482 503.936 111.994 504.448 111.994 505.056C111.994 505.664 111.482 506.176 110.874 506.176ZM114.796 506.176C114.188 506.176 113.676 505.664 113.676 505.056C113.676 504.448 114.188 503.936 114.796 503.936C115.404 503.936 115.916 504.448 115.916 505.056C115.916 505.664 115.404 506.176 114.796 506.176ZM118.718 506.176C118.11 506.176 117.598 505.664 117.598 505.056C117.598 504.448 118.11 503.936 118.718 503.936C119.326 503.936 119.838 504.448 119.838 505.056C119.838 505.664 119.326 506.176 118.718 506.176Z" fill="white" fill-opacity="0.4"/>
<rect x="283" y="479" width="44" height="44" rx="22" fill="white"/>
<g clip-path="url(#clip4_12412_52942)">
<path d="M298 511L315.195 501.001L298 491L300.682 500.025L311.78 501.001L300.682 501.975L298 511Z" fill="#1A2C38"/>
</g>
<g clip-path="url(#clip5_12412_52942)" filter="url(#filter0_d_12412_52942)">
<g clip-path="url(#clip6_12412_52942)">
<rect width="436" height="120" fill="#0079FF"/>
<path fill-rule="evenodd" clip-rule="evenodd" d="M69.2447 -382.97C128.534 -481.644 234.832 -504.22 370.875 -445.181C468.571 -402.448 453.474 -340.447 441.705 -320.86C418.833 -282.795 331.593 -270.084 331.593 -270.084C331.593 -270.084 321.175 -245.006 375.224 -221.598C429.274 -198.19 500.337 -205.375 545.648 -281.695C598.164 -369.098 513.948 -456.572 408.015 -502.44C319.201 -541.288 77.8346 -633.095 -42.0761 -433.529C-101.353 -334.875 -9.36465 -233.22 72.4595 -142.796C137.92 -70.4563 196.875 -5.30504 166.67 45.3694C92.6143 168.62 -88.9691 131.197 -144.102 107.316C-199.234 83.4337 -201.45 40.2286 -190.347 21.7502C-130.391 -78.0331 2.48204 -55.1492 2.48204 -55.1492C5.58738 -60.8411 7.33459 -67.0034 7.62192 -73.2772C7.90925 -79.5511 6.73095 -85.8112 4.15566 -91.6934C1.58036 -97.5755 -2.34052 -102.962 -7.37878 -107.54C-12.4171 -112.117 -18.4721 -115.794 -25.1914 -118.357C-140.866 -168.954 -238.518 -103.86 -288.048 -20.518C-330.572 50.2542 -298.187 120.19 -209.478 158.758C-40.2984 232.758 193.29 245.091 286.681 88.2952C333.112 10.294 249.481 -85.9691 171.202 -176.072C102.325 -255.352 37.5916 -329.864 69.2447 -382.97ZM1447.35 715.22C1447.71 711.88 1443.59 711.008 1436.28 712.245C1403.47 720.274 1369.11 722.599 1335.23 719.083C1301.34 715.567 1268.63 706.28 1239.04 691.775C1051.66 609.816 1177.16 332.656 1177.16 332.656C1177.16 332.656 1374.87 304.093 1418.51 276.981C1462.16 249.869 1397.74 210.489 1397.74 210.489C1397.74 210.489 1235.48 270.658 1146.32 270.164C1160.63 252.933 1188.42 229.214 1218.86 203.228C1262.22 166.217 1310.97 124.607 1333.82 90.5936C1372.71 32.6993 1277.83 10.3304 1259.43 9.98516C1252.09 22.2001 1199.83 73.449 1135.62 136.418L1135.62 136.421C1063.84 206.813 977.119 291.851 921.523 353.38C891.842 368.633 853.014 384.084 832.002 374.894C819.871 369.588 826.425 349.12 843.413 320.848C854.919 301.698 876.132 279.412 897.216 257.263C918.041 235.385 938.74 213.641 949.83 195.184C965.263 169.499 952.398 161.772 940.373 156.745L921.311 148.407C905.662 141.563 904.143 133.548 902.669 125.766C901.266 118.358 899.903 111.161 886.433 105.383C802.385 68.6203 647.971 100.252 573.119 217.088C535.082 220.751 482.895 224.293 462.533 215.386C442.17 206.48 444.92 185.514 453.691 170.916C469.013 145.416 608.362 15.0227 608.362 15.0227C608.362 15.0227 677.988 28.4426 708.063 35.2973C730.535 40.693 736.944 41.863 749.955 37.0534C762.966 32.2439 788.783 21.6016 810.457 11.4805C832.13 1.35943 827.111 -16.2371 805.338 -25.5273C765.913 -38.7633 725.442 -49.6039 684.225 -57.9681C684.225 -57.9681 807.847 -184.04 809.296 -186.906C810.745 -189.773 807.412 -193.331 801.13 -196.079C780.18 -203.032 758.224 -207.534 735.859 -209.461C721.227 -209.937 706.631 -207.929 692.919 -203.552C679.206 -199.174 666.65 -192.516 655.98 -183.963C644.098 -173.293 556.004 -87.6843 556.004 -87.6843C556.004 -87.6843 372.175 -109.988 346.51 -112.347C345.768 -112.432 345.013 -112.321 344.347 -112.027C343.682 -111.734 343.138 -111.273 342.79 -110.707C342.124 -109.599 325.018 -43.3427 361.521 -27.6093C387.949 -16.0498 480.948 -9.20698 480.948 -9.20698C480.948 -9.20698 361.25 107.147 334.708 151.775C317.499 180.416 313.105 220.964 379.068 249.583C432.924 270.288 492.921 276.416 550.978 267.14C549.301 283.704 553.626 300.309 563.367 314.711C573.108 329.113 587.797 340.617 605.447 347.669C649.437 363.398 698.76 364.39 743.564 350.445C740.533 364.725 742.658 379.455 749.657 392.683C756.656 405.912 768.199 417.016 782.758 424.525C806.153 434.759 843.96 422.827 874.169 408.972C871.129 413.315 868.422 417.82 866.064 422.461C839.904 481.023 956.274 490.855 965.27 484.989C972.005 475.455 979.866 463.225 988.639 449.577C1015.62 407.595 1051.23 352.194 1089.23 320.563C1010.11 504.602 1035.04 662.517 1205.64 736.436C1300.73 778.032 1363.68 775.698 1395.59 765.387C1408.65 761.671 1420.31 755.071 1429.4 746.259C1438.49 737.447 1444.69 726.738 1447.35 715.22ZM665.432 301.102C583.767 265.381 799.035 131.559 868.898 161.884C868.362 162.71 867.72 163.71 866.977 164.869C847.12 195.829 754.699 339.923 665.432 301.102ZM1381.8 665.31C1351.73 664.203 1322.25 657.822 1295.2 646.566C1178.43 595.96 1200.16 497.424 1252.17 444.102C1316.86 377.422 1443.31 353.628 1516.82 379.248C1575.91 399.728 1596.53 442.349 1594.48 459.885C1586.64 487.18 1567.49 511.13 1540.56 527.308C1445.54 581.651 1329.85 513.779 1329.85 513.779C1329.85 513.779 1278.49 567.386 1343.48 595.812C1363.19 604.276 1384.86 608.9 1406.92 609.348C1428.98 609.796 1450.88 606.058 1471.03 598.403C1480.68 601.923 1493.94 641.323 1469.96 653.003C1441.88 662.228 1411.86 666.418 1381.8 665.31ZM1513.98 463.645C1527.23 447.971 1537.97 432.369 1526.27 427.252C1477.5 408.719 1378.79 461.916 1353.27 493.922C1422.99 527.217 1495.77 484.848 1513.98 463.645Z" fill="url(#paint0_linear_12412_52942)"/>
<path d="M31.984 95H28.552V88.28H20.992V95H17.584V78.992H20.992V85.28H28.552V78.992H31.984V95ZM40.4427 95.288C36.6267 95.288 34.3227 92.504 34.3227 89.192C34.3227 85.904 36.6267 83.12 40.4427 83.12C44.2827 83.12 46.5867 85.904 46.5867 89.192C46.5867 92.504 44.2827 95.288 40.4427 95.288ZM40.4427 92.576C42.3387 92.576 43.4187 91.016 43.4187 89.192C43.4187 87.392 42.3387 85.832 40.4427 85.832C38.5467 85.832 37.4907 87.392 37.4907 89.192C37.4907 91.016 38.5467 92.576 40.4427 92.576ZM62.2639 95H59.0239L56.5759 87.104L54.1279 95H50.8639L47.3359 83.408H50.5039L52.6639 91.208L55.2079 83.408H57.9199L60.4639 91.208L62.6239 83.408H65.7919L62.2639 95ZM78.8339 95.288C75.2579 95.288 72.6899 92.768 72.6899 89.192C72.6899 85.64 75.2579 83.12 78.8339 83.12C81.2099 83.12 82.6499 84.152 83.4179 85.208L81.4259 87.08C80.8739 86.264 80.0339 85.832 78.9779 85.832C77.1299 85.832 75.8339 87.176 75.8339 89.192C75.8339 91.208 77.1299 92.576 78.9779 92.576C80.0339 92.576 80.8739 92.096 81.4259 91.328L83.4179 93.176C82.6499 94.256 81.2099 95.288 78.8339 95.288ZM95.4184 95H92.3704V93.8C91.5784 94.736 90.2104 95.288 88.6984 95.288C86.8504 95.288 84.6664 94.04 84.6664 91.448C84.6664 88.736 86.8504 87.704 88.6984 87.704C90.2344 87.704 91.6024 88.208 92.3704 89.12V87.56C92.3704 86.384 91.3624 85.616 89.8264 85.616C88.5784 85.616 87.4264 86.072 86.4424 86.984L85.2904 84.944C86.7064 83.696 88.5304 83.12 90.3544 83.12C92.9944 83.12 95.4184 84.176 95.4184 87.512V95ZM89.9224 93.224C90.9064 93.224 91.8664 92.888 92.3704 92.216V90.776C91.8664 90.104 90.9064 89.768 89.9224 89.768C88.7224 89.768 87.7384 90.392 87.7384 91.52C87.7384 92.6 88.7224 93.224 89.9224 93.224ZM109.314 95H106.266V87.992C106.266 86.384 105.426 85.832 104.13 85.832C102.93 85.832 101.994 86.504 101.49 87.2V95H98.4417V83.408H101.49V84.92C102.234 84.032 103.65 83.12 105.546 83.12C108.09 83.12 109.314 84.56 109.314 86.816V95ZM131.897 95H128.657L126.209 87.104L123.761 95H120.497L116.969 83.408H120.137L122.297 91.208L124.841 83.408H127.553L130.097 91.208L132.257 83.408H135.425L131.897 95ZM142.374 95.288C138.846 95.288 136.182 92.912 136.182 89.192C136.182 85.832 138.654 83.12 142.182 83.12C145.638 83.12 147.99 85.712 147.99 89.504V90.176H139.374C139.566 91.64 140.742 92.864 142.71 92.864C143.694 92.864 145.062 92.432 145.806 91.712L147.15 93.68C145.998 94.736 144.174 95.288 142.374 95.288ZM145.038 88.112C144.966 87.008 144.198 85.544 142.182 85.544C140.286 85.544 139.47 86.96 139.326 88.112H145.038ZM167.228 95H164.18V87.944C164.18 86.336 163.34 85.832 162.02 85.832C160.844 85.832 159.908 86.504 159.38 87.2V95H156.332V78.992H159.38V84.92C160.124 84.032 161.564 83.12 163.46 83.12C166.004 83.12 167.228 84.512 167.228 86.768V95ZM175.702 95.288C172.174 95.288 169.51 92.912 169.51 89.192C169.51 85.832 171.982 83.12 175.51 83.12C178.966 83.12 181.318 85.712 181.318 89.504V90.176H172.702C172.894 91.64 174.07 92.864 176.038 92.864C177.022 92.864 178.39 92.432 179.134 91.712L180.478 93.68C179.326 94.736 177.502 95.288 175.702 95.288ZM178.366 88.112C178.294 87.008 177.526 85.544 175.51 85.544C173.614 85.544 172.798 86.96 172.654 88.112H178.366ZM186.568 95H183.52V78.992H186.568V95ZM196.214 95.288C194.846 95.288 193.574 94.712 192.638 93.512V99.416H189.59V83.408H192.638V84.872C193.526 83.744 194.798 83.12 196.214 83.12C199.19 83.12 201.35 85.328 201.35 89.192C201.35 93.056 199.19 95.288 196.214 95.288ZM195.254 92.576C197.006 92.576 198.182 91.208 198.182 89.192C198.182 87.2 197.006 85.832 195.254 85.832C194.27 85.832 193.142 86.408 192.638 87.152V91.256C193.142 91.976 194.27 92.576 195.254 92.576ZM205.077 90.104C204.573 89.552 204.285 88.832 204.285 87.992C204.285 85.136 207.789 84.8 207.789 83.144C207.789 82.4 207.237 81.776 205.917 81.776C204.717 81.776 203.709 82.376 202.965 83.264L201.021 81.08C202.293 79.592 204.213 78.752 206.277 78.752C209.373 78.752 211.269 80.312 211.269 82.544C211.269 86.048 207.261 86.312 207.261 88.328C207.261 88.712 207.453 89.12 207.693 89.336L205.077 90.104ZM206.229 95.264C205.173 95.264 204.285 94.376 204.285 93.32C204.285 92.264 205.173 91.376 206.229 91.376C207.285 91.376 208.173 92.264 208.173 93.32C208.173 94.376 207.285 95.264 206.229 95.264Z" fill="white"/>
</g>
</g>
<rect x="273" y="12" width="58" height="27" rx="13.5" fill="#1A2C38"/>
<g clip-path="url(#clip7_12412_52942)">
<path d="M288 18.5C284.136 18.5 281 21.636 281 25.5C281 29.364 284.136 32.5 288 32.5C291.864 32.5 295 29.364 295 25.5C295 21.636 291.864 18.5 288 18.5ZM293.558 24.8H291.136C291.059 23.029 290.681 21.447 290.114 20.313C291.955 21.062 293.306 22.763 293.558 24.8ZM282.442 26.2H284.864C284.941 27.971 285.319 29.553 285.886 30.687C284.045 29.938 282.701 28.237 282.442 26.2ZM284.864 24.8H282.442C282.694 22.763 284.045 21.062 285.886 20.313C285.319 21.447 284.948 23.029 284.864 24.8ZM288.952 29.875C288.714 30.4 288.469 30.743 288.266 30.932C288.168 31.023 288.098 31.065 288.056 31.086C288.021 31.1 288.007 31.1 288 31.1C287.993 31.1 287.979 31.1 287.944 31.086C287.902 31.065 287.832 31.023 287.734 30.932C287.531 30.743 287.286 30.4 287.048 29.875C286.642 28.965 286.341 27.684 286.264 26.2H289.729C289.659 27.684 289.358 28.965 288.952 29.875ZM286.264 24.8C286.334 23.316 286.635 22.035 287.048 21.125C287.286 20.6 287.531 20.257 287.734 20.068C287.832 19.977 287.902 19.935 287.944 19.914C287.979 19.9 287.993 19.9 288 19.9C288.007 19.9 288.021 19.9 288.056 19.914C288.098 19.935 288.168 19.977 288.266 20.068C288.469 20.257 288.714 20.6 288.952 21.125C289.358 22.035 289.659 23.316 289.736 24.8H286.264ZM290.114 30.687C290.674 29.553 291.052 27.971 291.136 26.2H293.558C293.306 28.237 291.955 29.938 290.114 30.687Z" fill="white"/>
</g>
<g clip-path="url(#clip8_12412_52942)">
<path d="M308.851 30H302.243V20.662H308.851V22.412H304.231V24.386H308.753V26.136H304.231V28.25H308.851V30ZM318.763 30H316.845L312.393 23.91V30H310.405V20.662H312.449L316.775 26.528V20.662H318.763V30Z" fill="white"/>
</g>
<path d="M19.6342 24.0472C19.6342 20.3008 22.0125 18.2241 26.4114 18.2101C29.5755 18.2101 30.1438 20.2727 30.1438 21.0164C30.1438 22.4616 28.1022 23.991 28.1022 23.991C28.1022 23.991 28.2214 24.882 29.9684 24.875C31.7153 24.868 33.4271 23.7174 33.4131 20.8269C33.4131 17.5085 29.9052 15.9861 26.4815 16.0001C23.6051 16.0001 16 16.414 16 23.991C16 30.7332 28.7196 31.3225 28.7336 35.6442C28.7336 40.3237 23.4998 41.5866 21.7178 41.5936C19.9358 41.6006 19.2132 40.3307 19.2132 39.6292C19.2132 35.8407 22.9737 34.7813 22.9737 34.7813C22.9656 34.5693 22.9154 34.3611 22.8261 34.1686C22.7368 33.9762 22.6101 33.8035 22.4534 33.6605C22.2967 33.5176 22.1132 33.4072 21.9134 33.3358C21.7137 33.2644 21.5017 33.2335 21.2899 33.2448C17.5435 33.2448 16.0421 36.4861 16.0561 39.6432C16.0561 42.3302 17.9644 44.007 20.8339 44C26.3132 44 32.494 41.2989 32.473 35.3566C32.4519 29.8001 19.6482 28.3478 19.6342 24.0472Z" fill="white"/>
<path d="M71.9014 38.9416C71.8593 38.8364 71.7401 38.8645 71.5717 38.9978C70.854 39.6706 70.0085 40.1924 69.0854 40.5323C68.1622 40.8721 67.1802 41.0231 66.1976 40.9762C60.129 40.9762 59.0766 30.9928 59.0766 30.9928C59.0766 30.9928 63.707 27.534 64.4086 26.1449C65.1102 24.7558 62.8511 24.419 62.8511 24.419C62.8511 24.419 59.6168 28.3619 57.3227 29.5195C57.5682 27.8076 59.259 23.9069 59.3643 21.6548C59.4695 19.4028 56.6913 19.978 56.2142 20.2096C56.2142 21.1918 53.7446 30.0877 52.8396 34.9777C52.3134 35.8266 51.5557 36.8018 50.8752 36.8018C50.4823 36.8018 50.335 36.1003 50.335 35.0268C50.335 33.5816 51.1278 31.2594 51.1278 29.8492C51.1278 28.874 50.6788 28.8109 50.2929 28.8179H49.6755C48.6863 28.8179 49.009 27.976 48.118 27.983C45.3959 27.983 41.9231 30.9647 41.8038 35.4618C40.8848 36.0722 39.6009 36.865 38.9414 36.865C38.2819 36.865 38.0293 36.1985 38.0293 35.6442C38.0293 34.6761 39.5939 28.9231 39.5939 28.9231C39.5939 28.9231 41.5863 28.411 42.4633 28.2216C43.1228 28.0883 43.3052 28.0391 43.5648 27.7234C43.8244 27.4077 44.3225 26.7482 44.7224 26.1589C45.1223 25.5696 44.7224 25.1066 44.0208 25.1136C42.8057 25.2341 41.6007 25.4404 40.4147 25.731C40.4147 25.731 41.6425 20.3148 41.6354 20.2096C41.6284 20.1043 41.4881 20.0412 41.2847 20.0412C40.6402 20.1076 40.0077 20.261 39.4044 20.4972C39.0218 20.6753 38.6785 20.9276 38.3942 21.2396C38.11 21.5515 37.8906 21.9168 37.7487 22.3143C37.6084 22.7914 36.6683 26.5237 36.6683 26.5237C36.6683 26.5237 31.6099 28.2707 30.9154 28.5373C30.895 28.5445 30.8774 28.5577 30.8648 28.5753C30.8523 28.5929 30.8454 28.6139 30.8452 28.6355C30.8452 28.6776 31.4275 30.8946 32.6062 30.8875C33.4621 30.8875 35.9527 29.8703 35.9527 29.8703C35.9527 29.8703 34.6758 34.9427 34.6828 36.6334C34.6828 37.7209 35.195 38.9978 37.3278 38.9907C39.0281 38.905 40.6612 38.3002 42.0073 37.2579C42.2195 37.7779 42.5863 38.2203 43.0581 38.5252C43.5299 38.8301 44.0839 38.9828 44.6452 38.9627C46.0158 38.8571 47.2961 38.2383 48.2303 37.2298C48.3726 37.699 48.6541 38.1139 49.0374 38.4196C49.4208 38.7253 49.888 38.9073 50.3771 38.9416C51.1348 38.9416 51.9205 38.0857 52.4818 37.2719C52.4708 37.4424 52.4708 37.6135 52.4818 37.784C52.7133 39.8888 55.8494 38.654 55.9897 38.3593C56.0949 36.8299 55.9897 33.7079 56.6351 31.7856C57.4419 38.3593 60.5148 42.7792 66.0292 42.7582C69.1091 42.7582 70.6877 41.8602 71.3472 41.1305C71.6247 40.8472 71.8222 40.4953 71.9195 40.1108C72.0169 39.7263 72.0106 39.3229 71.9014 38.9416ZM45.4661 36.7738C42.8211 36.7738 46.2799 29.9194 48.539 29.9124C48.5109 30.7963 48.4618 36.7667 45.4661 36.7738Z" fill="white"/>
<path d="M66.9415 38.8785C67.8088 38.8612 68.6631 38.6653 69.4513 38.3032C70.2396 37.9411 70.9447 37.4205 71.5228 36.7738C71.9578 36.1073 71.0107 35.097 70.709 35.118C70.3099 35.6133 69.8059 36.0137 69.2332 36.2903C68.6605 36.567 68.0335 36.7129 67.3975 36.7176C65.2928 36.7176 65.7839 34.4305 65.7839 34.4305C65.7839 34.4305 69.7969 34.9497 71.3965 32.0662C71.8379 31.2256 71.9601 30.2537 71.7403 29.33C71.5228 28.7758 70.3371 27.7655 68.506 27.9269C66.2259 28.1233 63.3494 30.5017 62.718 33.3571C62.2059 35.6442 63.167 38.8925 66.9415 38.8785ZM69.4882 29.2459C69.8671 29.2459 69.832 29.8562 69.7338 30.5017C69.5935 31.3787 68.3797 33.6097 66.0786 33.5255C66.2399 32.2276 67.9518 29.33 69.4882 29.2459Z" fill="white"/>
</g>
</g>
<defs>
<filter id="filter0_d_12412_52942" x="-4" y="0" width="351" height="132" filterUnits="userSpaceOnUse" color-interpolation-filters="sRGB">
<feFlood flood-opacity="0" result="BackgroundImageFix"/>
<feColorMatrix in="SourceAlpha" type="matrix" values="0 0 0 0 0 0 0 0 0 0 0 0 0 0 0 0 0 0 127 0" result="hardAlpha"/>
<feMorphology radius="4" operator="erode" in="SourceAlpha" result="effect1_dropShadow_12412_52942"/>
<feOffset dy="8"/>
<feGaussianBlur stdDeviation="4"/>
<feComposite in2="hardAlpha" operator="out"/>
<feColorMatrix type="matrix" values="0 0 0 0 0 0 0 0 0 0 0 0 0 0 0 0 0 0 0.2 0"/>
<feBlend mode="normal" in2="BackgroundImageFix" result="effect1_dropShadow_12412_52942"/>
<feBlend mode="normal" in="SourceGraphic" in2="effect1_dropShadow_12412_52942" result="shape"/>
</filter>
<linearGradient id="paint0_linear_12412_52942" x1="416.159" y1="2.59562" x2="414.7" y2="262.909" gradientUnits="userSpaceOnUse">
<stop stop-color="#0079FF"/>
<stop offset="1" stop-color="#0F212E"/>
</linearGradient>
<clipPath id="clip0_12412_52942">
<rect width="343" height="534" fill="white"/>
</clipPath>
<clipPath id="clip1_12412_52942">
<rect width="343" height="535" rx="16" fill="white"/>
</clipPath>
<clipPath id="clip2_12412_52942">
<rect x="18" y="142" width="267" height="63" rx="8" fill="white"/>
</clipPath>
<clipPath id="clip3_12412_52942">
<rect x="18" y="278" width="267" height="63" rx="8" fill="white"/>
</clipPath>
<clipPath id="clip4_12412_52942">
<rect width="20" height="20" fill="white" transform="translate(295 491)"/>
</clipPath>
<clipPath id="clip5_12412_52942">
<rect width="343" height="120" fill="white"/>
</clipPath>
<clipPath id="clip6_12412_52942">
<rect width="436" height="120" fill="white"/>
</clipPath>
<clipPath id="clip7_12412_52942">
<rect width="14" height="14" fill="white" transform="translate(281 18.5)"/>
</clipPath>
<clipPath id="clip8_12412_52942">
<rect width="22" height="17" fill="white" transform="translate(301 17)"/>
</clipPath>
</defs>
</svg>
