<svg width="1796" height="388" viewBox="0 0 1796 388" fill="none" xmlns="http://www.w3.org/2000/svg">
<g clip-path="url(#clip0_12540_90934)">
<rect width="1796" height="388" fill="white"/>
<g clip-path="url(#clip1_12540_90934)">
<rect width="1796" height="397.084" transform="translate(-6.10352e-05 -5)" fill="url(#paint0_linear_12540_90934)"/>
<path fill-rule="evenodd" clip-rule="evenodd" d="M192.857 -170.855C157.055 -368.973 267.217 -518.643 504.966 -592.836C676.116 -646.195 726.051 -545.993 733.254 -506.124C747.039 -429.916 650.784 -314.801 650.784 -314.801C650.784 -314.801 665.276 -269.244 759.947 -298.725C854.618 -328.205 936.02 -417.864 908.343 -570.894C876.655 -746.645 674.256 -769.134 488.206 -711.187C332.61 -662.457 -76.2434 -514.037 -3.9819 -113.146C31.682 84.7069 261.192 117.074 465.208 145.845C628.393 168.859 775.268 189.572 793.585 290.832C838.272 538.338 565.886 692.644 470.274 722.415C374.662 752.185 323.269 697.111 316.607 660.312C280.398 459.891 474.541 341.013 474.541 341.013C471.939 326.275 448.203 263.006 369.214 287.657C165.941 351.07 115.108 547.381 145.279 714.535C170.875 856.712 289.292 913.968 444.288 865.585C740.665 773.174 1050.01 528.489 993.349 214.092C965.117 57.6636 751.926 23.0998 552.436 -9.24262C377.022 -37.6818 212.203 -64.4033 193.041 -170.75L192.857 -170.855ZM3159.27 -252.888C3155.92 -257.844 3149.57 -254.434 3142.06 -244.513C3139.88 -241.667 3137.5 -238.456 3134.88 -234.928L3134.88 -234.922C3103 -191.955 3036.23 -101.955 2869.81 -50.1035C2541.78 52.2177 2391.32 -460.079 2391.32 -460.079C2391.32 -460.079 2609.15 -720.126 2635.2 -805.847C2661.24 -891.568 2533.97 -869.693 2533.97 -869.693C2533.97 -869.693 2395.75 -607.297 2282.67 -507.881C2281.58 -546.932 2290.3 -609.851 2299.85 -678.766C2313.47 -776.95 2328.77 -887.306 2319.76 -958.151C2304.4 -1078.88 2157.71 -1003.1 2135.59 -984.15C2139.98 -959.706 2131.02 -832.869 2120.01 -676.906L2120.01 -676.901C2107.66 -502.083 2092.72 -290.672 2091.11 -145.849C2070.32 -92.1799 2038.47 -28.1409 2001.8 -16.6851C1980.63 -10.1645 1965.98 -46.2855 1955.88 -101.613C1948.92 -140.118 1950.96 -193.778 1952.99 -247.086L1952.99 -247.087C1955 -299.708 1956.99 -351.985 1950.29 -389.003C1941 -440.694 1916.31 -436.326 1895.63 -429.797C1893.36 -429.096 1885.98 -426.622 1878.6 -424.148L1878.6 -424.147C1871.23 -421.673 1863.85 -419.2 1861.58 -418.5C1834.13 -409.963 1823.32 -419.058 1812.81 -427.905C1802.85 -436.287 1793.15 -444.448 1769.81 -437.182C1622.47 -391.319 1462.43 -175.781 1496.28 64.7018C1452.26 112.254 1389.65 174.433 1354.24 185.503C1316.91 196.998 1301.7 166.072 1296.39 136.949C1287.18 85.7188 1318.38 -245.216 1318.38 -245.216C1318.38 -245.216 1421.48 -305.622 1466.96 -329.017C1501.37 -346.736 1510.94 -352.437 1522.08 -373.673C1533.21 -394.908 1553.9 -437.865 1570.15 -476.052C1586.42 -514.086 1560.83 -531.621 1520.4 -519.006C1467.26 -502.479 1331.13 -425.911 1331.13 -425.911C1331.13 -425.911 1348.5 -734.943 1347.44 -740.931C1346.39 -746.919 1337.87 -747.372 1326.74 -743.943C1300.86 -735.974 1257.17 -708.109 1229.5 -688.742C1187.12 -659.018 1159.83 -593.471 1156.94 -565.869C1154.04 -538.266 1137.79 -324.928 1137.79 -324.928C1137.79 -324.928 880.598 -148.267 845.582 -122.752C843.235 -121.058 842.203 -118.474 842.583 -116.325C842.989 -114.022 895.063 -6.3853 959.152 -26.4472C1005.39 -40.8495 1130.28 -136.132 1130.28 -136.132C1130.28 -136.132 1108.61 155.122 1124.91 244.638C1135.26 302.317 1174.78 361.369 1289.82 325.456C1397.01 291.958 1480.99 209.435 1526.73 155.688C1567.98 217.933 1639.18 216.565 1685.41 202.163C1789.15 169.728 1854.91 64.4914 1863.05 50.6531C1882.04 77.6657 1924.29 127.786 1996.69 105.164C2037.62 92.5571 2072.13 34.1765 2095.85 -18.779C2097.3 -7.7335 2098.9 1.32489 2101.12 8.25101C2133.39 116.156 2291.17 -1.71889 2297.5 -20.1803C2295.46 -40.1391 2291.99 -64.8743 2288.12 -92.4937C2275.98 -179.1 2259.86 -294.066 2271.19 -379.051C2376.39 -44.4755 2583.62 138.401 2881.72 45.4588C3048.33 -6.49884 3125.5 -79.8025 3154.27 -129.456C3187.48 -186.788 3169.51 -238.885 3159.71 -253.187L3159.27 -252.888ZM1707.63 73.2642C1564.53 117.823 1687.29 -303.309 1809.38 -341.395C1817.8 -294.617 1870.94 22.321 1707.63 73.2642ZM3115.39 -347.815C3101.84 -314.99 3016.34 -200.759 2887.19 -160.499L2887.32 -160.701C2683.39 -97.2473 2601.13 -253.213 2607.08 -383.414C2614.54 -545.324 2747.87 -719.286 2869.5 -767.431C2968.57 -806.683 3040.89 -772.623 3057.57 -746.518C3074.01 -720.825 3084.84 -652.934 3065.57 -595.36C3005.21 -415.541 2783.3 -376.175 2783.3 -376.175C2783.3 -376.175 2779.21 -246.707 2891.89 -281.896C2981.82 -310.051 3017.72 -364.129 3049.95 -412.682C3052.03 -415.815 3054.09 -418.926 3056.16 -422.005C3072.3 -427.949 3132.83 -390.421 3115.39 -347.815ZM2959.76 -650.511C2959.18 -686.592 2955.13 -719.825 2935.01 -712.98L2935.03 -712.826C2852.24 -684.415 2787.04 -501.16 2790.74 -429.617C2915.89 -463.467 2960.6 -601.721 2959.76 -650.511Z" fill="url(#paint1_linear_12540_90934)"/>
</g>
</g>
<defs>
<linearGradient id="paint0_linear_12540_90934" x1="1170.14" y1="11.2249" x2="1083.47" y2="428.265" gradientUnits="userSpaceOnUse">
<stop stop-color="#1475E1"/>
<stop offset="1" stop-color="#1A2C38"/>
</linearGradient>
<linearGradient id="paint1_linear_12540_90934" x1="1477.49" y1="-82.8732" x2="1296.49" y2="500.476" gradientUnits="userSpaceOnUse">
<stop stop-color="#0079FF"/>
<stop offset="1" stop-color="#1B2D39"/>
</linearGradient>
<clipPath id="clip0_12540_90934">
<rect width="1796" height="388" fill="white"/>
</clipPath>
<clipPath id="clip1_12540_90934">
<rect width="1796" height="397.084" fill="white" transform="translate(-6.10352e-05 -5)"/>
</clipPath>
</defs>
</svg>

