<svg width="587" height="640" viewBox="0 0 587 640" fill="none" xmlns="http://www.w3.org/2000/svg">
<g clip-path="url(#clip0_12619_139451)">
<rect width="587" height="640" fill="#0079FF"/>
<g clip-path="url(#clip1_12619_139451)">
<rect width="587" height="640" fill="#0079FF"/>
<path fill-rule="evenodd" clip-rule="evenodd" d="M-153.489 -714.629C44.5796 -854.457 243.249 -804.647 407.184 -572.478C525.142 -405.318 436.34 -298.543 396.48 -270.405C320.296 -216.605 163.375 -267.972 163.375 -267.972C163.375 -267.972 120.066 -228.728 185.278 -136.247C250.489 -43.7664 375.008 3.52925 527.991 -104.501C703.725 -228.461 655.325 -469.025 527.159 -650.764C419.685 -802.622 115.598 -1191.44 -285.259 -908.712C-483.095 -769.174 -435.52 -492.947 -393.23 -247.403C-359.404 -51.0008 -328.958 125.77 -430.186 197.258C-677.645 371.896 -939.226 140.628 -1005.08 47.2258C-1070.94 -46.176 -1030.69 -131.993 -993.903 -157.978C-793.528 -299.421 -597.619 -139.041 -597.619 -139.041C-582.861 -149.374 -524.006 -207.965 -578.472 -285.099C-718.613 -483.612 -945.72 -442.839 -1112.84 -324.907C-1255.02 -224.671 -1273.64 -61.8294 -1166.75 89.5226C-962.473 378.982 -591.49 606.837 -277.116 385.118C-120.714 274.756 -160.118 15.915 -196.99 -226.29C-229.412 -439.264 -259.876 -639.376 -153.536 -714.368L-153.489 -714.629ZM993.981 2604.89C998.057 2598.61 992.16 2593.13 978.918 2589.59C975.113 2588.55 970.85 2587.46 966.166 2586.26L966.141 2586.26C909.017 2571.67 789.363 2541.12 674.701 2378.57C448.564 2058.22 940.045 1631.07 940.045 1631.07C940.045 1631.07 1294.67 1747.56 1395.22 1734.11C1495.76 1720.66 1426.99 1587.44 1426.99 1587.44C1426.99 1587.44 1098.32 1562.33 952.093 1484.04C993.264 1463.23 1063.35 1441.58 1140.11 1417.88C1249.48 1384.11 1372.4 1346.15 1444.59 1300.44C1567.59 1222.55 1434.52 1094.34 1406.44 1078.77C1381.99 1096 1243.79 1149.4 1073.86 1215.06L1073.84 1215.07C883.367 1288.67 653.021 1377.68 498.308 1448.41C433.757 1451.75 354.214 1447.76 328.915 1411.95C314.409 1391.23 347.62 1356.54 402.898 1317.38C441.39 1290.2 499.232 1265.63 556.693 1241.22L556.697 1241.22C613.42 1217.12 669.772 1193.19 706.778 1167.05C758.474 1130.62 745 1104.84 730.662 1084.69C729.104 1082.46 723.835 1075.34 718.566 1068.23L718.565 1068.23C713.295 1061.11 708.026 1053.99 706.467 1051.77C687.572 1024.95 693.389 1008.15 699.048 991.802C704.409 976.317 709.628 961.242 693.557 938.447C592.086 794.508 305.482 721.188 61.6278 880.037C-4.71734 853.989 -93.2718 814.217 -117.711 779.64C-143.286 743.114 -115.807 710.381 -86.7078 689.777C-35.4727 653.675 327.903 523.206 327.903 523.206C327.903 523.206 429.042 609.743 470.195 649.542C501.352 679.644 510.842 687.636 537.423 689.609C564.003 691.582 617.119 693.501 663.568 692.769C709.864 692.144 719.383 654.374 691.506 614.886C654.924 562.967 524.779 447.11 524.779 447.11C524.779 447.11 859.902 311.952 865.897 307.754C871.892 303.557 869.332 293.685 861.703 282.788C843.973 257.465 798.699 221.924 768.198 200.283C721.417 167.17 641.901 169.098 611.487 179.644C581.073 190.191 348.204 278.681 348.204 278.681C348.204 278.681 68.2592 75.8228 28.5885 48.9379C25.9468 47.1281 22.8276 47.2537 20.6755 48.7606C18.3697 50.3751 -77.581 163.3 -33.3236 225.854C-1.47001 271.02 144.577 364.766 144.577 364.766C144.577 364.766 -173.159 486.149 -262.61 549.466C-320.301 590.089 -369.025 664.458 -289.69 776.782C-215.729 881.433 -97.8822 935.231 -24.33 960.12C-75.8378 1038.04 -48.9387 1118.01 -17.0851 1163.17C54.5128 1264.45 190.019 1286.21 207.657 1288.5C185.693 1323.55 147.448 1396.52 197.401 1467.21C225.447 1507.27 299.916 1517.11 364.756 1517.45C353.52 1524.63 344.45 1530.98 337.87 1536.96C234.558 1627.59 416.404 1747.28 438.316 1745.2C458.827 1732.88 483.912 1716.56 511.921 1698.34L511.93 1698.34C599.769 1641.19 716.371 1565.33 810.87 1535.58C492.367 1822.4 371.788 2148.8 577.247 2439.95C692.089 2602.65 797.691 2653.36 860.822 2661.08C933.708 2669.96 982.737 2623.51 994.457 2605.24L993.981 2604.89ZM128.048 1123.76C29.4786 983.967 521.577 912.032 605.747 1031.26C558.97 1064.24 240.633 1283.25 128.048 1123.76ZM1079.33 2507.61C1039.55 2508.71 887.415 2469.08 798.409 2342.95L798.67 2342.99C658.254 2143.76 794.852 1972.41 935.557 1913.92C1110.55 1841.25 1343.35 1905.13 1438.07 2018.8C1515.25 2111.37 1504.84 2210.36 1483.02 2242.34C1461.55 2273.84 1393.16 2320.12 1325 2327.14C1112.04 2348.86 990.833 2117.19 990.833 2117.19C990.833 2117.19 851.571 2177.42 929.294 2287.44C991.403 2375.22 1061.79 2388.79 1124.98 2400.98C1129.06 2401.76 1133.11 2402.54 1137.12 2403.34C1149.22 2418.65 1130.91 2506.03 1079.33 2507.61ZM1345.88 2179.64C1384.07 2160.9 1418 2139.66 1403.52 2120.3L1403.37 2120.4C1343.54 2040.85 1125.19 2058.79 1050.37 2098.83C1131.13 2223.66 1294.25 2205.04 1345.88 2179.64Z" fill="url(#paint0_linear_12619_139451)"/>
</g>
<rect y="341" width="600" height="300" fill="url(#paint1_linear_12619_139451)"/>
</g>
<defs>
<linearGradient id="paint0_linear_12619_139451" x1="360.219" y1="-167.436" x2="127.211" y2="614.179" gradientUnits="userSpaceOnUse">
<stop stop-color="#071824"/>
<stop offset="0.0001" stop-color="#223743"/>
<stop offset="1" stop-color="#0079FF"/>
</linearGradient>
<linearGradient id="paint1_linear_12619_139451" x1="242.249" y1="356" x2="244.364" y2="640.984" gradientUnits="userSpaceOnUse">
<stop stop-color="#001F41" stop-opacity="0"/>
<stop offset="0.677083" stop-color="#001F41"/>
</linearGradient>
<clipPath id="clip0_12619_139451">
<rect width="587" height="640" fill="white"/>
</clipPath>
<clipPath id="clip1_12619_139451">
<rect width="587" height="640" fill="white"/>
</clipPath>
</defs>
</svg>
